<svg xmlns="http://www.w3.org/2000/svg" xmlns:xlink="http://www.w3.org/1999/xlink" viewBox="0 0 604.22 719.47"><defs><style>.cls-1,.cls-21,.cls-22,.cls-23,.cls-25,.cls-27,.cls-29,.cls-39,.cls-40,.cls-41,.cls-43,.cls-45,.cls-47{fill:none;}.cls-2{fill:#f66;}.cls-3{fill:#ffa83e;}.cls-4{fill:#0fa392;}.cls-5{fill:#a5cd39;}.cls-6{isolation:isolate;}.cls-7{fill:#ffe232;}.cls-8,.cls-90{fill:#da1c5c;}.cls-9{fill:#39c0ba;}.cls-10{fill:#fbb040;}.cls-11{fill:#fff;}.cls-12{fill:#f49394;}.cls-13{clip-path:url(#clip-path);}.cls-14{fill:#27aae1;}.cls-15{fill:#1a96c1;}.cls-16{fill:#ee2a7b;}.cls-17{fill:#f2368c;}.cls-18{fill:#f946a0;}.cls-19,.cls-20,.cls-21,.cls-24,.cls-25,.cls-26,.cls-27,.cls-28,.cls-29,.cls-37,.cls-38,.cls-39,.cls-42,.cls-43,.cls-44,.cls-45,.cls-46,.cls-47{mix-blend-mode:screen;}.cls-19{fill:url(#Unnamed_Pattern_19);}.cls-20,.cls-24,.cls-25,.cls-29,.cls-38,.cls-42,.cls-43,.cls-47{opacity:0.5;}.cls-20{fill:url(#Unnamed_Pattern_18);}.cls-21,.cls-43{stroke:#0fa392;}.cls-21,.cls-23,.cls-25,.cls-27,.cls-29,.cls-39,.cls-41,.cls-43,.cls-45,.cls-47{stroke-linecap:round;stroke-linejoin:round;}.cls-21,.cls-25,.cls-27,.cls-29{stroke-width:6.29px;}.cls-21,.cls-39{opacity:0.4;}.cls-22,.cls-23,.cls-29,.cls-45{stroke:#ffa83e;}.cls-22,.cls-40{stroke-miterlimit:10;}.cls-22,.cls-23{stroke-width:0.9px;}.cls-24{fill:url(#Unnamed_Pattern_16);}.cls-25,.cls-40,.cls-41,.cls-47{stroke:#f66;}.cls-26{fill:url(#Unnamed_Pattern_19-3);}.cls-27,.cls-39{stroke:#a5cd39;}.cls-27,.cls-28,.cls-45,.cls-46{opacity:0.8;}.cls-28{fill:url(#Unnamed_Pattern_17);}.cls-30{font-size:31.4px;font-family:AntroVectra, Antro Vectra;}.cls-31{letter-spacing:-0.01em;}.cls-32{fill:#f7941e;}.cls-33{fill:#ea8211;}.cls-34{fill:#d1d3d4;}.cls-35{fill:#e6e7e8;}.cls-36{fill:#f1f2f2;}.cls-37{fill:url(#Unnamed_Pattern_17-3);}.cls-38{fill:url(#Unnamed_Pattern_19-5);}.cls-39,.cls-43,.cls-45,.cls-47{stroke-width:5.88px;}.cls-40,.cls-41{stroke-width:0.84px;}.cls-42{fill:url(#Unnamed_Pattern_18-3);}.cls-44{fill:url(#Unnamed_Pattern_17-5);}.cls-46{fill:url(#Unnamed_Pattern_16-3);}.cls-48{clip-path:url(#clip-path-2);}.cls-49{fill:#b72521;}.cls-50{fill:#7f0f72;}.cls-51{fill:#b21fa8;}.cls-52{fill:#111;}.cls-53{clip-path:url(#clip-path-3);}.cls-54{fill:#ef4440;}.cls-55{fill:#e21414;}.cls-56{clip-path:url(#clip-path-4);}.cls-57{fill:#e7ca30;}.cls-58{fill:#d6b218;}.cls-59{clip-path:url(#clip-path-5);}.cls-60{fill:#ea6a0c;}.cls-61{fill:#ce5909;}.cls-62{mix-blend-mode:soft-light;}.cls-63{clip-path:url(#clip-path-6);}.cls-64{fill:#dd4137;}.cls-65{clip-path:url(#clip-path-7);}.cls-66{clip-path:url(#clip-path-8);}.cls-67{clip-path:url(#clip-path-9);}.cls-68{fill:#ed504c;}.cls-69{fill:#d7731d;}.cls-103,.cls-70{fill:#961980;}.cls-71{clip-path:url(#clip-path-10);}.cls-72{fill:#214356;}.cls-73{fill:#e5b267;}.cls-74{fill:#c9862f;opacity:0.34;}.cls-75{clip-path:url(#clip-path-11);}.cls-76{fill:#f7c786;}.cls-77{clip-path:url(#clip-path-12);}.cls-78{fill:#23a59b;}.cls-79{clip-path:url(#clip-path-13);}.cls-80{clip-path:url(#clip-path-14);}.cls-81{fill:#c1d920;}.cls-82{fill:#abba00;}.cls-83,.cls-86{fill:#f76a31;}.cls-84{fill:#deee24;}.cls-85{fill:#ff855d;}.cls-86{opacity:0.46;}.cls-87{fill:#18968a;}.cls-88{fill:#3a5b71;}.cls-89{clip-path:url(#clip-path-15);}.cls-90,.cls-93{opacity:0.57;}.cls-91{fill:#ff3390;}.cls-92{fill:#d37a1a;opacity:0.38;}.cls-93{fill:#2eaaa1;}.cls-94{fill:#44e0d5;}.cls-95{fill:#fb5a62;}.cls-96{fill:#84dccf;}.cls-97{fill:#f468c4;}.cls-98{fill:#2b2b2b;}.cls-99{fill:#ed1c24;}.cls-100{fill:#f7a328;}.cls-101{fill:#7ac943;}.cls-102{fill:#58347e;}.cls-103{font-size:69.1px;font-family:Ebrima-Bold, Ebrima;font-weight:700;}.cls-104{clip-path:url(#clip-path-16);}.cls-105{fill:#db9f8f;}.cls-106{fill:#e08a15;}.cls-107{fill:#c23535;}.cls-108{fill:#f2d2c5;}.cls-109{fill:#4d3525;}.cls-110{fill:#60412a;}.cls-111{clip-path:url(#clip-path-17);}.cls-112{fill:#333e40;}.cls-113{fill:#fda61d;}.cls-114{fill:#f99;}.cls-115{fill:#c04949;}</style><clipPath id="clip-path"><rect class="cls-1" x="157.78" y="147.47" width="272.98" height="272.98" transform="translate(617.18 534.89) rotate(173.87)"/></clipPath><pattern id="Unnamed_Pattern_19" data-name="Unnamed Pattern 19" width="17.89" height="17.89" patternTransform="translate(86.28 22) scale(0.9)" patternUnits="userSpaceOnUse" viewBox="0 0 17.89 17.89"><rect class="cls-1" width="17.89" height="17.89"/><path class="cls-5" d="M1.47,0H0V1.47A1.47,1.47,0,0,0,1.47,0Z"/><path class="cls-5" d="M17.89,1.47V0H16.42A1.47,1.47,0,0,0,17.89,1.47Z"/><path class="cls-5" d="M0,16.42v1.47H1.47A1.47,1.47,0,0,0,0,16.42Z"/><path class="cls-5" d="M17.89,16.42a1.47,1.47,0,0,0-1.47,1.47h1.47Z"/><circle class="cls-5" cx="8.95" cy="8.95" r="1.47"/></pattern><pattern id="Unnamed_Pattern_18" data-name="Unnamed Pattern 18" width="17.89" height="17.89" patternTransform="translate(83.18 14.71) scale(0.9)" patternUnits="userSpaceOnUse" viewBox="0 0 17.89 17.89"><rect class="cls-1" width="17.89" height="17.89"/><path class="cls-4" d="M1.47,0H0V1.47A1.47,1.47,0,0,0,1.47,0Z"/><path class="cls-4" d="M17.89,1.47V0H16.42A1.47,1.47,0,0,0,17.89,1.47Z"/><path class="cls-4" d="M0,16.42v1.47H1.47A1.47,1.47,0,0,0,0,16.42Z"/><path class="cls-4" d="M17.89,16.42a1.47,1.47,0,0,0-1.47,1.47h1.47Z"/><circle class="cls-4" cx="8.95" cy="8.95" r="1.47"/></pattern><pattern id="Unnamed_Pattern_16" data-name="Unnamed Pattern 16" width="17.89" height="17.89" patternTransform="translate(83.18 14.71) scale(0.9)" patternUnits="userSpaceOnUse" viewBox="0 0 17.89 17.89"><rect class="cls-1" width="17.89" height="17.89"/><path class="cls-2" d="M1.47,0H0V1.47A1.47,1.47,0,0,0,1.47,0Z"/><path class="cls-2" d="M17.89,1.47V0H16.42A1.47,1.47,0,0,0,17.89,1.47Z"/><path class="cls-2" d="M0,16.42v1.47H1.47A1.47,1.47,0,0,0,0,16.42Z"/><path class="cls-2" d="M17.89,16.42a1.47,1.47,0,0,0-1.47,1.47h1.47Z"/><circle class="cls-2" cx="8.95" cy="8.95" r="1.47"/></pattern><pattern id="Unnamed_Pattern_19-3" data-name="Unnamed Pattern 19" width="17.89" height="17.89" patternTransform="matrix(0.89, -0.13, 0.13, 0.89, 107.59, -2.38)" patternUnits="userSpaceOnUse" viewBox="0 0 17.89 17.89"><rect class="cls-1" width="17.89" height="17.89"/><path class="cls-5" d="M1.47,0H0V1.47A1.47,1.47,0,0,0,1.47,0Z"/><path class="cls-5" d="M17.89,1.47V0H16.42A1.47,1.47,0,0,0,17.89,1.47Z"/><path class="cls-5" d="M0,16.42v1.47H1.47A1.47,1.47,0,0,0,0,16.42Z"/><path class="cls-5" d="M17.89,16.42a1.47,1.47,0,0,0-1.47,1.47h1.47Z"/><circle class="cls-5" cx="8.95" cy="8.95" r="1.47"/></pattern><pattern id="Unnamed_Pattern_17" data-name="Unnamed Pattern 17" width="17.89" height="17.89" patternTransform="translate(102.58 -6.77) rotate(7.69) scale(0.9)" patternUnits="userSpaceOnUse" viewBox="0 0 17.89 17.89"><rect class="cls-1" width="17.89" height="17.89"/><path class="cls-3" d="M1.47,0H0V1.47A1.47,1.47,0,0,0,1.47,0Z"/><path class="cls-3" d="M17.89,1.47V0H16.42A1.47,1.47,0,0,0,17.89,1.47Z"/><path class="cls-3" d="M0,16.42v1.47H1.47A1.47,1.47,0,0,0,0,16.42Z"/><path class="cls-3" d="M17.89,16.42a1.47,1.47,0,0,0-1.47,1.47h1.47Z"/><circle class="cls-3" cx="8.95" cy="8.95" r="1.47"/></pattern><pattern id="Unnamed_Pattern_17-3" data-name="Unnamed Pattern 17" width="17.89" height="17.89" patternTransform="matrix(-0.83, 0.11, 0.11, 0.83, -87.18, 48.74)" patternUnits="userSpaceOnUse" viewBox="0 0 17.89 17.89"><rect class="cls-1" width="17.89" height="17.89"/><path class="cls-3" d="M1.47,0H0V1.47A1.47,1.47,0,0,0,1.47,0Z"/><path class="cls-3" d="M17.89,1.47V0H16.42A1.47,1.47,0,0,0,17.89,1.47Z"/><path class="cls-3" d="M0,16.42v1.47H1.47A1.47,1.47,0,0,0,0,16.42Z"/><path class="cls-3" d="M17.89,16.42a1.47,1.47,0,0,0-1.47,1.47h1.47Z"/><circle class="cls-3" cx="8.95" cy="8.95" r="1.47"/></pattern><pattern id="Unnamed_Pattern_19-5" data-name="Unnamed Pattern 19" width="17.89" height="17.89" patternTransform="matrix(-0.83, 0.11, 0.11, 0.83, -85.18, 41.62)" patternUnits="userSpaceOnUse" viewBox="0 0 17.89 17.89"><rect class="cls-1" width="17.89" height="17.89"/><path class="cls-5" d="M1.47,0H0V1.47A1.47,1.47,0,0,0,1.47,0Z"/><path class="cls-5" d="M17.89,1.47V0H16.42A1.47,1.47,0,0,0,17.89,1.47Z"/><path class="cls-5" d="M0,16.42v1.47H1.47A1.47,1.47,0,0,0,0,16.42Z"/><path class="cls-5" d="M17.89,16.42a1.47,1.47,0,0,0-1.47,1.47h1.47Z"/><circle class="cls-5" cx="8.95" cy="8.95" r="1.47"/></pattern><pattern id="Unnamed_Pattern_18-3" data-name="Unnamed Pattern 18" width="17.89" height="17.89" patternTransform="matrix(-0.83, 0.11, 0.11, 0.83, -85.18, 41.62)" patternUnits="userSpaceOnUse" viewBox="0 0 17.89 17.89"><rect class="cls-1" width="17.89" height="17.89"/><path class="cls-4" d="M1.47,0H0V1.47A1.47,1.47,0,0,0,1.47,0Z"/><path class="cls-4" d="M17.89,1.47V0H16.42A1.47,1.47,0,0,0,17.89,1.47Z"/><path class="cls-4" d="M0,16.42v1.47H1.47A1.47,1.47,0,0,0,0,16.42Z"/><path class="cls-4" d="M17.89,16.42a1.47,1.47,0,0,0-1.47,1.47h1.47Z"/><circle class="cls-4" cx="8.95" cy="8.95" r="1.47"/></pattern><pattern id="Unnamed_Pattern_17-5" data-name="Unnamed Pattern 17" width="17.89" height="17.89" patternTransform="matrix(-0.84, -0.01, -0.01, 0.84, -88.82, 55.64)" patternUnits="userSpaceOnUse" viewBox="0 0 17.89 17.89"><rect class="cls-1" width="17.89" height="17.89"/><path class="cls-3" d="M1.47,0H0V1.47A1.47,1.47,0,0,0,1.47,0Z"/><path class="cls-3" d="M17.89,1.47V0H16.42A1.47,1.47,0,0,0,17.89,1.47Z"/><path class="cls-3" d="M0,16.42v1.47H1.47A1.47,1.47,0,0,0,0,16.42Z"/><path class="cls-3" d="M17.89,16.42a1.47,1.47,0,0,0-1.47,1.47h1.47Z"/><circle class="cls-3" cx="8.95" cy="8.95" r="1.47"/></pattern><pattern id="Unnamed_Pattern_16-3" data-name="Unnamed Pattern 16" width="17.89" height="17.89" patternTransform="matrix(-0.81, 0.22, 0.22, 0.81, -70.22, 114.94)" patternUnits="userSpaceOnUse" viewBox="0 0 17.89 17.89"><rect class="cls-1" width="17.89" height="17.89"/><path class="cls-2" d="M1.47,0H0V1.47A1.47,1.47,0,0,0,1.47,0Z"/><path class="cls-2" d="M17.89,1.47V0H16.42A1.47,1.47,0,0,0,17.89,1.47Z"/><path class="cls-2" d="M0,16.42v1.47H1.47A1.47,1.47,0,0,0,0,16.42Z"/><path class="cls-2" d="M17.89,16.42a1.47,1.47,0,0,0-1.47,1.47h1.47Z"/><circle class="cls-2" cx="8.95" cy="8.95" r="1.47"/></pattern><clipPath id="clip-path-2"><rect class="cls-1" x="183.19" y="502.17" width="124.62" height="192"/></clipPath><clipPath id="clip-path-3"><path class="cls-1" d="M240.22,632.88a11.52,11.52,0,0,0,11.34-.81l.17-.11c5.52-3.67,11,6.67,4.17,13.06s-17.44,5.79-22.31-1C229.34,638.14,233,629.58,240.22,632.88Z"/></clipPath><clipPath id="clip-path-4"><path class="cls-1" d="M240.34,632.7a11.52,11.52,0,0,0,11.34-.81l.17-.11c5.52-3.67,11,6.67,4.17,13.06s-17.44,5.79-22.31-1C229.46,638,233.08,629.39,240.34,632.7Z"/></clipPath><clipPath id="clip-path-5"><rect class="cls-1" x="457.81" y="489.7" width="134" height="204.47"/></clipPath><clipPath id="clip-path-6"><path class="cls-1" d="M506.1,592.67a26.59,26.59,0,0,1,37.88-.86c7.85,7.66,17.09,20.85,25.25,43.56,18.86,52.48-11.89,59.86-43.46,60.27s-81.18-12.71-50.84-59.86C489.23,613.57,498.79,600.46,506.1,592.67Z"/></clipPath><clipPath id="clip-path-7"><path class="cls-1" d="M519.79,614.82a13.85,13.85,0,0,0,13.63-1l.2-.13c6.64-4.41,13.22,8,5,15.7s-21,7-26.81-1.16C506.71,621.15,511.06,610.85,519.79,614.82Z"/></clipPath><clipPath id="clip-path-8"><path class="cls-1" d="M519.94,614.6a13.85,13.85,0,0,0,13.63-1l.2-.13c6.64-4.41,13.22,8,5,15.7s-21,7-26.81-1.16C506.86,620.92,511.21,610.62,519.94,614.6Z"/></clipPath><clipPath id="clip-path-9"><path class="cls-1" d="M498.36,597.78l30.06-50.62,25.47,51.23S530.93,587.33,498.36,597.78Z"/></clipPath><clipPath id="clip-path-10"><rect class="cls-1" x="292.69" y="394.17" width="195.15" height="300"/></clipPath><clipPath id="clip-path-11"><path class="cls-1" d="M411.48,539.64s43,19.71,40.32-34.47c0,0,26.94,67-35.18,61.17Z"/></clipPath><clipPath id="clip-path-12"><path class="cls-1" d="M359.67,539.64s-43,19.71-40.32-34.47c0,0-26.94,67,35.18,61.17Z"/></clipPath><clipPath id="clip-path-13"><path class="cls-1" d="M381.25,573.63a17.69,17.69,0,0,0,17.41-1.24l.25-.17c8.48-5.63,16.89,10.24,6.41,20.05s-26.77,8.89-34.24-1.49C364.55,581.71,370.1,568.56,381.25,573.63Z"/></clipPath><clipPath id="clip-path-14"><path class="cls-1" d="M381.25,573.62a17.69,17.69,0,0,0,17.41-1.24l.25-.17c8.48-5.63,16.89,10.24,6.41,20s-26.77,8.89-34.24-1.49C364.55,581.69,370.1,568.54,381.25,573.62Z"/></clipPath><clipPath id="clip-path-15"><path class="cls-1" d="M349.32,540.22l40.62-68.4L424.35,541S393.32,526.09,349.32,540.22Z"/></clipPath><clipPath id="clip-path-16"><rect class="cls-1" x="110.81" y="31.17" width="171" height="120"/></clipPath><clipPath id="clip-path-17"><path class="cls-1" d="M154.41,51.69c-6.4,3.49-10.41,3.25-15.78,2.69-3.34-.4-7.75-3.13-11.61-6.19l7.7-8.69-7.85-7c4.21-4.77,5-5.65,6.86-7.78l3.3-3.68c2.12-2.48,8.29-9.37,10.77-12.16l7.85,7,7.7-8.69c3.5,3.47,6.75,7.52,7.55,10.78,1.21,5.26,1.93,9.22-.77,16C166.72,35.26,153.34,49,154.41,51.69Z"/></clipPath></defs><title>Recurso 29</title><g class="cls-6"><g id="Capa_2" data-name="Capa 2"><g id="Capa_1-2" data-name="Capa 1"><rect class="cls-7" y="31.17" width="602.9" height="662.8"/><path class="cls-8" d="M39.47,369.4c3.22,0,3.22-5,0-5s-3.22,5,0,5Z"/><path class="cls-8" d="M32.81,496.73c3.22,0,3.22-5,0-5s-3.22,5,0,5Z"/><path class="cls-8" d="M48.81,473.4c3.22,0,3.22-5,0-5s-3.22,5,0,5Z"/><path class="cls-9" d="M50.21,341.17c-.16-.13-.3-.28-.45-.42-.33-.32.26.45,0,0-.07-.13-.14-.29-.22-.41q.22.54.09.17,0-.15-.08-.3a2.52,2.52,0,0,0-3.08-1.75,2.56,2.56,0,0,0-1.75,3.08,5.85,5.85,0,0,0,1.91,3.15,2.7,2.7,0,0,0,1.77.73,2.5,2.5,0,0,0,1.77-4.27Z"/><path class="cls-8" d="M592.47,434.4c3.22,0,3.22-5,0-5s-3.22,5,0,5Z"/><path class="cls-8" d="M514.42,538.41l1.33-1a2.73,2.73,0,0,0,1.15-1.49,2.55,2.55,0,0,0-.25-1.93c-.66-1-2.3-1.74-3.42-.9l-1.33,1a2.73,2.73,0,0,0-1.15,1.49,2.55,2.55,0,0,0,.25,1.93c.66,1,2.3,1.74,3.42.9Z"/><path class="cls-8" d="M585.81,561.73c3.22,0,3.22-5,0-5s-3.22,5,0,5Z"/><path class="cls-8" d="M569.81,422.06c3.22,0,3.22-5,0-5s-3.22,5,0,5Z"/><path class="cls-8" d="M601.81,538.4c3.22,0,3.22-5,0-5s-3.22,5,0,5Z"/><path class="cls-10" d="M584,447.9v-.33a2.5,2.5,0,0,0-5,0v.33a2.5,2.5,0,0,0,5,0Z"/><path class="cls-10" d="M493.81,429.06c3.22,0,3.22-5,0-5s-3.22,5,0,5Z"/><path class="cls-9" d="M603.21,406.17c-.16-.13-.3-.28-.45-.42-.33-.32.26.45,0,0-.07-.13-.14-.29-.22-.41q.22.54.09.17,0-.15-.08-.3a2.52,2.52,0,0,0-3.08-1.75,2.56,2.56,0,0,0-1.75,3.08,5.85,5.85,0,0,0,1.91,3.15,2.7,2.7,0,0,0,1.77.73,2.5,2.5,0,0,0,1.77-4.27Z"/><path class="cls-10" d="M541.47,411.4c3.22,0,3.22-5,0-5s-3.22,5,0,5Z"/><path class="cls-10" d="M550.64,528.56v-.33a2.5,2.5,0,0,0-5,0v.33a2.5,2.5,0,0,0,5,0Z"/><path class="cls-9" d="M519.47,419.4c3.22,0,3.22-5,0-5s-3.22,5,0,5Z"/><path class="cls-8" d="M281.47,680.4c3.22,0,3.22-5,0-5s-3.22,5,0,5Z"/><path class="cls-8" d="M258.81,668.06c3.22,0,3.22-5,0-5s-3.22,5,0,5Z"/><path class="cls-8" d="M541.81,649.06c3.22,0,3.22-5,0-5s-3.22,5,0,5Z"/><path class="cls-10" d="M273,693.9v-.33a2.5,2.5,0,0,0-5,0v.33a2.5,2.5,0,0,0,5,0Z"/><path class="cls-10" d="M182.81,668.39c3.22,0,3.22-5,0-5s-3.22,5,0,5Z"/><path class="cls-9" d="M292.21,652.17c-.16-.13-.3-.28-.45-.42-.33-.32.26.45,0,0-.07-.13-.14-.29-.22-.41q.22.54.09.17,0-.15-.08-.3a2.52,2.52,0,0,0-3.08-1.75,2.56,2.56,0,0,0-1.75,3.08,5.85,5.85,0,0,0,1.91,3.15,2.7,2.7,0,0,0,1.77.73,2.5,2.5,0,0,0,1.77-4.27Z"/><path class="cls-10" d="M230.47,613.51c3.22,0,3.22-5,0-5s-3.22,5,0,5Z"/><path class="cls-9" d="M208.47,638.36c3.22,0,3.22-5,0-5s-3.22,5,0,5Z"/><path class="cls-9" d="M486.14,505.06c3.22,0,3.22-5,0-5s-3.22,5,0,5Z"/><path class="cls-9" d="M491.81,534.06c3.22,0,3.22-5,0-5s-3.22,5,0,5Z"/><path class="cls-9" d="M565.81,541.73c3.22,0,3.22-5,0-5s-3.22,5,0,5Z"/><path class="cls-8" d="M147.47,174.4c3.22,0,3.22-5,0-5s-3.22,5,0,5Z"/><path class="cls-8" d="M140.81,301.73c3.22,0,3.22-5,0-5s-3.22,5,0,5Z"/><path class="cls-8" d="M156.81,278.4c3.22,0,3.22-5,0-5s-3.22,5,0,5Z"/><path class="cls-9" d="M158.21,146.17c-.16-.13-.3-.28-.45-.42-.33-.32.26.45,0,0-.07-.13-.14-.29-.22-.41q.22.54.09.17,0-.15-.08-.3a2.52,2.52,0,0,0-3.08-1.75,2.56,2.56,0,0,0-1.75,3.08,5.85,5.85,0,0,0,1.91,3.15,2.7,2.7,0,0,0,1.77.73,2.5,2.5,0,0,0,1.77-4.27Z"/><path class="cls-8" d="M96.81,389.06c3.22,0,3.22-5,0-5s-3.22,5,0,5Z"/><path class="cls-8" d="M312.17,390.24c3.22,0,3.22-5,0-5s-3.22,5,0,5Z"/><path class="cls-8" d="M122.45,641.16l3.21-2.41a2.57,2.57,0,0,0,.9-3.42c-.66-1-2.3-1.74-3.42-.9l-3.21,2.41a2.57,2.57,0,0,0-.9,3.42c.66,1,2.3,1.74,3.42.9Z"/><path class="cls-8" d="M98.68,326c3.22,0,3.22-5,0-5s-3.22,5,0,5Z"/><path class="cls-8" d="M282.21,225.17a4.84,4.84,0,0,1-.5-2.89A2.58,2.58,0,0,0,280,219.2a2.52,2.52,0,0,0-3.08,1.75,10.58,10.58,0,0,0,1,6.74,2.5,2.5,0,1,0,4.32-2.52Z"/><path class="cls-8" d="M257.59,360.54c3.22,0,3.22-5,0-5s-3.22,5,0,5Z"/><path class="cls-10" d="M288.18,426.26v-.8a2.5,2.5,0,0,0-5,0v.8a2.5,2.5,0,0,0,5,0Z"/><path class="cls-10" d="M74.6,377.4c3.22,0,3.22-5,0-5s-3.22,5,0,5Z"/><path class="cls-10" d="M318.59,241.76c3.22,0,3.22-5,0-5s-3.22,5,0,5Z"/><path class="cls-10" d="M189.37,334.86c3.22,0,3.22-5,0-5s-3.22,5,0,5Z"/><path class="cls-10" d="M207.92,620.49v-.8a2.5,2.5,0,0,0-5,0v.8a2.5,2.5,0,0,0,5,0Z"/><path class="cls-9" d="M182.95,190.4c3.22,0,3.22-5,0-5s-3.22,5,0,5Z"/><path class="cls-9" d="M136.4,354.12c3.22,0,3.22-5,0-5s-3.22,5,0,5Z"/><path class="cls-8" d="M511.11,637.38c3.22,0,3.22-5,0-5s-3.22,5,0,5Z"/><path class="cls-8" d="M403.68,559.07l1,1.32a2.49,2.49,0,0,0,1.77.73,2.54,2.54,0,0,0,1.77-.73,2.52,2.52,0,0,0,.73-1.77,2.94,2.94,0,0,0-.73-1.77l-1-1.32a2.49,2.49,0,0,0-1.77-.73,2.54,2.54,0,0,0-1.77.73,2.52,2.52,0,0,0-.73,1.77,2.94,2.94,0,0,0,.73,1.77Z"/><path class="cls-8" d="M383.68,632.82c3.22,0,3.22-5,0-5s-3.22,5,0,5Z"/><path class="cls-8" d="M523.06,614.51c3.22,0,3.22-5,0-5s-3.22,5,0,5Z"/><path class="cls-8" d="M407.28,648.43c3.22,0,3.22-5,0-5s-3.22,5,0,5Z"/><path class="cls-10" d="M494.93,626.64h.33a2.5,2.5,0,0,0,0-5h-.33a2.5,2.5,0,0,0,0,5Z"/><path class="cls-10" d="M514.8,538.63c3.22,0,3.22-5,0-5s-3.22,5,0,5Z"/><path class="cls-9" d="M537,645.21c.13-.16.27-.3.41-.46.31-.34-.45.26,0,0a3.76,3.76,0,0,0,.4-.22q-.55.22-.17.08l.3-.08a2.52,2.52,0,0,0,1.75-3.08,2.55,2.55,0,0,0-3.08-1.75,5.84,5.84,0,0,0-3.13,1.95,2.72,2.72,0,0,0-.73,1.77,2.54,2.54,0,0,0,.73,1.77c.9.83,2.67,1.1,3.54,0Z"/><path class="cls-10" d="M533.26,586c3.22,0,3.22-5,0-5s-3.22,5,0,5Z"/><path class="cls-10" d="M413.72,594.65h.33a2.5,2.5,0,0,0,0-5h-.33a2.5,2.5,0,1,0,0,5Z"/><path class="cls-9" d="M524.89,564.14c3.22,0,3.22-5,0-5s-3.22,5,0,5Z"/><path class="cls-8" d="M295.63,590.27c3.22,0,3.22-5,0-5s-3.22,5,0,5Z"/><path class="cls-9" d="M438.69,532.23c3.22,0,3.22-5,0-5s-3.22,5,0,5Z"/><path class="cls-9" d="M409.78,538.38c3.22,0,3.22-5,0-5s-3.22,5,0,5Z"/><path class="cls-9" d="M403.35,612.49c3.22,0,3.22-5,0-5s-3.22,5,0,5Z"/><path class="cls-8" d="M358.68,591.1c3.22,0,3.22-5,0-5s-3.22,5,0,5Z"/><path class="cls-8" d="M477.59,598c3.22,0,3.22-5,0-5s-3.22,5,0,5Z"/><path class="cls-10" d="M306.92,567.88c3.22,0,3.22-5,0-5s-3.22,5,0,5Z"/><path class="cls-10" d="M469.91,558.39l1.62.78a2.5,2.5,0,0,0,2.52-4.32l-1.62-.78a2.5,2.5,0,1,0-2.52,4.32Z"/><path class="cls-10" d="M351.36,681.93c3.22,0,3.22-5,0-5s-3.22,5,0,5Z"/><path class="cls-9" d="M495.7,673.11c3.22,0,3.22-5,0-5s-3.22,5,0,5Z"/><path class="cls-9" d="M331.22,629.28c3.22,0,3.22-5,0-5s-3.22,5,0,5Z"/><path class="cls-9" d="M56.14,512.39c3.22,0,3.22-5,0-5s-3.22,5,0,5Z"/><path class="cls-9" d="M69.78,582.21c3.22,0,3.22-5,0-5s-3.22,5,0,5Z"/><path class="cls-9" d="M248,648.67c3.22,0,3.22-5,0-5s-3.22,5,0,5Z"/><rect class="cls-11" x="129.49" y="111.99" width="335.92" height="413.07" transform="translate(627.2 603.49) rotate(173.87)"/><rect class="cls-12" x="157.21" y="147.13" width="272.98" height="272.98" transform="translate(616 534.26) rotate(173.87)"/><g class="cls-13"><image width="768" height="960" transform="matrix(-0.37, 0.04, 0.04, 0.37, 412.98, 87.81)" xlink:href="../../../andree-Fiesta/images/3.jpg"/></g><polygon class="cls-14" points="51.56 599.52 65.82 694.17 146.25 694.17 154.94 597.71 51.56 599.52"/><path class="cls-15" d="M88.5,643c11.91-9.51,26-16.44,39.74-22.83,8.15-3.78,16.71-7.37,25.54-9.53l1.16-12.92L51.57,599.5l12.25,81.3C68.43,666.32,75.82,653.09,88.5,643Z"/><rect class="cls-16" x="98.42" y="590.28" width="19.09" height="103.89"/><rect class="cls-14" x="46.17" y="589.67" width="115.1" height="22.02"/><rect class="cls-17" x="98.42" y="589.67" width="19.09" height="22.02"/><path class="cls-18" d="M103,580.4s24.39-37.06,40-20.14,14.12,42-9.6,40S103,580.4,103,580.4Z"/><path class="cls-18" d="M112.74,580.4s-24.39-37.06-40-20.14-14.12,42,9.6,40S112.74,580.4,112.74,580.4Z"/><path class="cls-16" d="M108.59,591.4h0a4.85,4.85,0,0,1-4.84-4.84V573.92a4.85,4.85,0,0,1,4.84-4.84h0a4.85,4.85,0,0,1,4.84,4.84v12.63A4.85,4.85,0,0,1,108.59,591.4Z"/><ellipse class="cls-5" cx="537.39" cy="143.37" rx="36.94" ry="42.45"/><ellipse class="cls-19" cx="537.39" cy="143.37" rx="36.94" ry="42.45"/><ellipse class="cls-4" cx="517.62" cy="151.7" rx="36.94" ry="42.45"/><ellipse class="cls-20" cx="517.62" cy="151.7" rx="36.94" ry="42.45"/><path class="cls-21" d="M496.86,170.66A39.28,39.28,0,0,1,492,158.92c-4.21-18,4.57-35.44,19.58-39"/><line class="cls-22" x1="517.62" y1="267.51" x2="530.95" y2="191"/><line class="cls-22" x1="517.62" y1="194.15" x2="517.62" y2="267.51"/><line class="cls-22" x1="517.62" y1="267.51" x2="553.95" y2="115.63"/><line class="cls-22" x1="517.62" y1="267.51" x2="480.08" y2="161.18"/><line class="cls-22" x1="517.62" y1="267.51" x2="512.08" y2="122.04"/><path class="cls-22" d="M517.47,267.51a13.15,13.15,0,0,0,1.49,9c1.63,2.52,4.36,4.65,7.38,4.8,1.48.07,3.32.16,4.21-1.16a8.55,8.55,0,0,0,1-4.65,9.31,9.31,0,0,0-3.91-6.74,13.1,13.1,0,0,0-6.53-2.58c-1.63,0-1.88.59-3.52.6,0,0,6.14,21.71-9.13,30.24"/><path class="cls-22" d="M517.26,267.12c-4.43-.38-11.17,17.95-7.15,22.19,2.34,2.47,5.09-2.48,6.3-6.25,1-3,3.24-13.16,1.66-15.92"/><path class="cls-23" d="M518.37,266.61a41,41,0,0,1,2.39,30.69"/><ellipse class="cls-2" cx="512.08" cy="79.59" rx="36.94" ry="42.45"/><ellipse class="cls-24" cx="512.08" cy="79.59" rx="36.94" ry="42.45"/><path class="cls-25" d="M487.16,92.6a39.3,39.3,0,0,1-2.23-12.49c-.31-18.45,12-33.67,27.39-33.93"/><ellipse class="cls-5" cx="470" cy="120.01" rx="36.94" ry="42.45" transform="translate(-12.3 68.16) rotate(-8.19)"/><ellipse class="cls-26" cx="470" cy="120.01" rx="36.94" ry="42.45" transform="translate(-12.3 68.16) rotate(-8.19)"/><path class="cls-27" d="M454.07,144.72a39.28,39.28,0,0,1-7.31-10.37c-8.09-16.58-3.41-35.57,10.45-42.34"/><ellipse class="cls-3" cx="563.85" cy="76" rx="42.45" ry="36.94" transform="translate(413.08 624.61) rotate(-82.31)"/><ellipse class="cls-28" cx="563.85" cy="76" rx="42.45" ry="36.94" transform="translate(413.08 624.61) rotate(-82.31)"/><path class="cls-29" d="M538.81,89.91a39.3,39.3,0,0,1-2.23-12.49c-.31-18.45,12-33.67,27.39-33.93"/><text class="cls-30" transform="translate(204.96 484.9) rotate(-7.65)">A<tspan class="cls-31" x="34.27" y="0">n</tspan><tspan x="47.6" y="0">dree Lissa</tspan><tspan class="cls-31" x="177.55" y="0">n</tspan><tspan x="190.88" y="0">dro</tspan></text><polygon class="cls-32" points="480.88 307.12 491.53 377.81 551.6 377.81 558.08 305.77 480.88 307.12"/><path class="cls-33" d="M508.47,339.57c8.89-7.1,19.4-12.28,29.68-17a105,105,0,0,1,19.08-7.11l.87-9.65-77.2,1.35L490,367.82C493.48,357,499,347.13,508.47,339.57Z"/><rect class="cls-34" x="515.88" y="300.22" width="14.26" height="77.58"/><rect class="cls-32" x="476.86" y="299.77" width="85.95" height="16.45"/><rect class="cls-35" x="515.88" y="299.77" width="14.26" height="16.45"/><path class="cls-36" d="M519.33,292.85s18.21-27.68,29.89-15,10.55,31.34-7.17,29.87S519.33,292.85,519.33,292.85Z"/><path class="cls-36" d="M526.57,292.85s-18.21-27.68-29.89-15-10.55,31.34,7.17,29.87S526.57,292.85,526.57,292.85Z"/><path class="cls-34" d="M523.47,301.05h0a3.62,3.62,0,0,1-3.61-3.61V288a3.63,3.63,0,0,1,3.61-3.61h0a3.63,3.63,0,0,1,3.61,3.61v9.43A3.62,3.62,0,0,1,523.47,301.05Z"/><ellipse class="cls-3" cx="74.41" cy="414.5" rx="34.53" ry="39.68" transform="translate(-52.14 12.84) rotate(-7.31)"/><ellipse class="cls-37" cx="74.41" cy="414.5" rx="34.53" ry="39.68" transform="translate(-52.14 12.84) rotate(-7.31)"/><ellipse class="cls-5" cx="93.72" cy="419.88" rx="34.53" ry="39.68" transform="translate(-52.66 15.34) rotate(-7.31)"/><ellipse class="cls-38" cx="93.72" cy="419.88" rx="34.53" ry="39.68" transform="translate(-52.66 15.34) rotate(-7.31)"/><path class="cls-39" d="M115.23,435a36.71,36.71,0,0,0,3.08-11.45c1.77-17.16-8.45-32.32-22.79-33.79"/><line class="cls-40" x1="110.7" y1="552.23" x2="86.04" y2="457.9"/><line class="cls-40" x1="98.77" y1="459.23" x2="110.7" y2="552.23"/><line class="cls-40" x1="110.7" y1="552.23" x2="55.75" y2="390.76"/><line class="cls-40" x1="110.7" y1="552.23" x2="129.65" y2="424.2"/><line class="cls-40" x1="110.7" y1="552.23" x2="95.33" y2="391.71"/><path class="cls-40" d="M110.84,552.21a12.29,12.29,0,0,1-.31,8.51c-1.21,2.53-3.49,4.83-6.27,5.32-1.36.24-3.06.54-4-.58a8,8,0,0,1-1.51-4.18,8.7,8.7,0,0,1,2.83-6.72,12.24,12.24,0,0,1,5.75-3.16c1.51-.2,1.81.32,3.33.14,0,0-3.11,20.86,12.06,27"/><path class="cls-40" d="M111,551.82c4.07-.88,12.49,15.31,9.27,19.72-1.88,2.57-5-1.69-6.59-5-1.23-2.63-4.57-11.82-3.43-14.56"/><path class="cls-41" d="M109.9,551.49a38.29,38.29,0,0,0,1.43,28.74"/><ellipse class="cls-4" cx="90.28" cy="352.36" rx="34.53" ry="39.68" transform="translate(-44.1 14.35) rotate(-7.31)"/><ellipse class="cls-42" cx="90.28" cy="352.36" rx="34.53" ry="39.68" transform="translate(-44.1 14.35) rotate(-7.31)"/><path class="cls-43" d="M114.93,361.46a36.73,36.73,0,0,0,.59-11.85c-1.9-17.14-15.1-29.79-29.43-28.2"/><ellipse class="cls-3" cx="134.1" cy="384.83" rx="39.68" ry="34.53" transform="translate(-252.74 513.02) rotate(-89.12)"/><ellipse class="cls-44" cx="134.1" cy="384.83" rx="39.68" ry="34.53" transform="translate(-252.74 513.02) rotate(-89.12)"/><path class="cls-45" d="M151.81,405.85a36.72,36.72,0,0,0,5.55-10.49c5.53-16.33-1.07-33.39-14.72-38"/><ellipse class="cls-2" cx="41.86" cy="355.19" rx="34.53" ry="39.68" transform="translate(-90.51 22.94) rotate(-15)"/><ellipse class="cls-46" cx="41.86" cy="355.19" rx="34.53" ry="39.68" transform="translate(-90.51 22.94) rotate(-15)"/><path class="cls-47" d="M66.73,365.11a36.73,36.73,0,0,0,.59-11.85c-1.9-17.14-15.1-29.79-29.43-28.2"/><g class="cls-48"><text></text><text></text><path class="cls-49" d="M221.21,606.92s27.24-12.2,51.64.57C272.85,607.49,241.4,614.93,221.21,606.92Z"/><path class="cls-50" d="M253.37,719.34H237.55a42.55,42.55,0,0,1-41.25-52.85l8.92-35.75a42.55,42.55,0,0,1,41.28-32.24h0A42.55,42.55,0,0,1,288.29,633l6.9,35.76A42.55,42.55,0,0,1,253.37,719.34Z"/><path class="cls-51" d="M273.2,712a227.92,227.92,0,0,1-58.9.49,42.16,42.16,0,0,0,23.27,6.95H253.4a42.2,42.2,0,0,0,25.32-8.33Q276,711.62,273.2,712Z"/><path class="cls-51" d="M236.19,698.11a229.21,229.21,0,0,0,42.41-3.89q7.58-1.4,15-3.39a42.19,42.19,0,0,0,1.89-20,158.57,158.57,0,0,1-23.66,5.63,139.12,139.12,0,0,1-73.4-8.81c-.74-.3-1.46-.62-2.18-.94a42.19,42.19,0,0,0,2.13,26.77A150.89,150.89,0,0,0,236.19,698.11Z"/><path class="cls-52" d="M240.22,632.88a11.52,11.52,0,0,0,11.34-.81l.17-.11c5.52-3.67,11,6.67,4.17,13.06s-17.44,5.79-22.31-1C229.34,638.14,233,629.58,240.22,632.88Z"/><g class="cls-53"><path class="cls-54" d="M255.92,645.31s.48-7.77-9.83-1.4c0,0-8.83-5.89-11.11,2C235,645.89,243.67,655.52,255.92,645.31Z"/><path class="cls-55" d="M246.34,647.16a1.26,1.26,0,0,1-1.5-.19,18.69,18.69,0,0,0-7.46-4.54,5.55,5.55,0,0,0-2.4,3.46s7.68,8.51,18.78,1.05C252.21,644.45,248.25,645.82,246.34,647.16Z"/></g><g class="cls-56"><path class="cls-11" d="M239.45,631.07s.86,3.72-.47,4.67c-.43.31-2.8.54-3.32.1-1.44-1.2-1.28-4.88-1.28-4.88S238.75,628.35,239.45,631.07Z"/><path class="cls-11" d="M256,630s.86,3.72-.47,4.67c-.43.31-2.8.54-3.32.1-1.44-1.2-1.28-4.88-1.28-4.88S255.31,627.32,256,630Z"/></g><ellipse class="cls-52" cx="255.23" cy="627.5" rx="1.61" ry="2.33"/><ellipse class="cls-52" cx="234.85" cy="627.5" rx="1.61" ry="2.33"/><path class="cls-50" d="M281.44,636.44c13.72-3.56,15-22.29,16.19-33.81.18-1.81,3-1.83,2.86,0-1.3,12.95-3,32.61-18.29,36.57a1.43,1.43,0,0,1-.76-2.76Z"/><path class="cls-50" d="M299.12,603.55s-5.8.62-6.22-6.74a1.44,1.44,0,0,1,2.51-1,13.25,13.25,0,0,1,2.06,4.13s-2.57-7.51-.5-7.72,2.14,6.79,2.14,6.79.36-6.79,2.07-6.51,0,6.94,0,6.94,1.29-4.08,3.22-3.5S305,604.55,299.12,603.55Z"/><path class="cls-50" d="M210.33,637.54c-13.72-3.56-15-22.29-16.19-33.81-.18-1.81-3-1.83-2.86,0,1.3,12.95,3,32.61,18.29,36.57a1.43,1.43,0,0,0,.76-2.76Z"/><path class="cls-50" d="M192.65,604.65s5.8.62,6.22-6.74a1.44,1.44,0,0,0-2.51-1,13.25,13.25,0,0,0-2.06,4.13s2.57-7.51.5-7.72-2.14,6.79-2.14,6.79-.36-6.79-2.07-6.51,0,6.94,0,6.94-1.29-4.08-3.22-3.5S186.79,605.65,192.65,604.65Z"/><path class="cls-57" d="M221.21,606.92l28-47.07,23.68,47.64S251.49,597.2,221.21,606.92Z"/><path class="cls-57" d="M250.89,560.28a2.82,2.82,0,0,1-3.15.26c-1.7-1-4-2.52-2.76-3.31,1.91-1.19,3.67,2.06,3.67,2.06s-.66-4.11.62-3.58.52,3.62.52,3.62.29-3.19,2.72-2.48C254.09,557.31,252.37,559.1,250.89,560.28Z"/><path class="cls-58" d="M253.22,568c.4,1.37.8,2.73,1.23,4.06,1,3.08,2.29,6.53,1.82,9.82-.86,6-7.09,9.57-12.39,11.08-4.53,1.29-9.77,1.53-13.7-1.15l-9,15.1c30.29-9.72,51.64.57,51.64.57Z"/><path class="cls-8" d="M218.5,589.14c3.22,0,3.22-5,0-5s-3.22,5,0,5Z"/><path class="cls-8" d="M289.77,577.83l2.46-3.08a2.56,2.56,0,0,0,0-3.54,2.53,2.53,0,0,0-3.54,0l-2.46,3.08a2.56,2.56,0,0,0,0,3.54,2.53,2.53,0,0,0,3.54,0Z"/><path class="cls-8" d="M281.65,521c3.22,0,3.22-5,0-5s-3.22,5,0,5Z"/><path class="cls-8" d="M207.19,522.83c3.22,0,3.22-5,0-5s-3.22,5,0,5Z"/><path class="cls-8" d="M193,664.37c3.22,0,3.22-5,0-5s-3.22,5,0,5Z"/><path class="cls-8" d="M301.38,667.4v-3.08a2.5,2.5,0,0,0-5,0v3.08a2.5,2.5,0,0,0,5,0Z"/><path class="cls-8" d="M282.27,597.9c3.22,0,3.22-5,0-5s-3.22,5,0,5Z"/><path class="cls-8" d="M194.88,554.21c3.22,0,3.22-5,0-5s-3.22,5,0,5Z"/><path class="cls-8" d="M298.88,544.29h-.62a2.5,2.5,0,0,0,0,5h.62a2.5,2.5,0,0,0,0-5Z"/><path class="cls-10" d="M225.11,578.21c3.22,0,3.22-5,0-5s-3.22,5,0,5Z"/><path class="cls-10" d="M192.71,585c3.22,0,3.22-5,0-5s-3.22,5,0,5Z"/><path class="cls-10" d="M194.27,534.52c3.22,0,3.22-5,0-5s-3.22,5,0,5Z"/><path class="cls-10" d="M270,512.94v-.62a2.5,2.5,0,0,0-5,0v.62a2.5,2.5,0,0,0,5,0Z"/><path class="cls-10" d="M298.88,650.21c3.22,0,3.22-5,0-5s-3.22,5,0,5Z"/><path class="cls-10" d="M197.57,643.43l-1.26-1.83a2.5,2.5,0,1,0-4.32,2.52l1.26,1.83a2.5,2.5,0,1,0,4.32-2.52Z"/><path class="cls-10" d="M189.35,691.44c3.22,0,3.22-5,0-5s-3.22,5,0,5Z"/><path class="cls-9" d="M213.66,600.91l-.62-1.23a2.52,2.52,0,0,0-3.42-.9,2.56,2.56,0,0,0-.9,3.42l.62,1.23a2.52,2.52,0,0,0,3.42.9,2.56,2.56,0,0,0,.9-3.42Z"/><path class="cls-9" d="M209,570.51c3.22,0,3.22-5,0-5s-3.22,5,0,5Z"/><path class="cls-9" d="M274.27,572h-.62a2.5,2.5,0,0,0,0,5h.62a2.5,2.5,0,0,0,0-5Z"/><path class="cls-9" d="M285.88,607.18l-.62-.62a2.5,2.5,0,0,0-3.54,3.54l.62.62a2.5,2.5,0,0,0,3.54-3.54Z"/><path class="cls-9" d="M304.46,688.94v-.62a2.5,2.5,0,0,0-5,0v.62a2.5,2.5,0,0,0,5,0Z"/><path class="cls-9" d="M296.42,527.75c3.22,0,3.22-5,0-5s-3.22,5,0,5Z"/><path class="cls-9" d="M193,516.67c3.22,0,3.22-5,0-5s-3.22,5,0,5Z"/><path class="cls-9" d="M259.5,561.6c3.22,0,3.22-5,0-5s-3.22,5,0,5Z"/><path class="cls-9" d="M234.27,562.21c3.22,0,3.22-5,0-5s-3.22,5,0,5Z"/><path class="cls-9" d="M243.5,509.9c3.22,0,3.22-5,0-5s-3.22,5,0,5Z"/></g><g class="cls-59"><path class="cls-60" d="M485.27,630.15c-14.76-3.83-16.17-24-17.41-36.36-.2-2-3.27-2-3.08,0,1.4,13.92,3.24,35.07,19.67,39.33,1.92.5,2.73-2.47.82-3Z"/><path class="cls-60" d="M466.26,594.78s6.23.66,6.69-7.25a1.54,1.54,0,0,0-2.7-1.12,14.24,14.24,0,0,0-2.22,4.45s2.77-8.07.54-8.3-2.31,7.3-2.31,7.3-.38-7.3-2.23-7,0,7.46,0,7.46-1.38-4.38-3.46-3.77S460,595.86,466.26,594.78Z"/><path class="cls-60" d="M564.34,630.15c14.76-3.83,16.17-24,17.41-36.36.2-2,3.27-2,3.08,0-1.4,13.92-3.24,35.07-19.67,39.33-1.92.5-2.73-2.47-.82-3Z"/><path class="cls-60" d="M583.35,594.78s-6.23.66-6.69-7.25a1.54,1.54,0,0,1,2.7-1.12,14.24,14.24,0,0,1,2.22,4.45s-2.77-8.07-.54-8.3,2.31,7.3,2.31,7.3.38-7.3,2.23-7,0,7.46,0,7.46,1.38-4.38,3.46-3.77S589.66,595.86,583.35,594.78Z"/><path class="cls-49" d="M498.36,597.78s29.29-13.12,55.53.62C553.89,598.4,520.07,606.4,498.36,597.78Z"/><path class="cls-60" d="M506.1,592.67a26.59,26.59,0,0,1,37.88-.86c7.85,7.66,17.09,20.85,25.25,43.56,18.86,52.48-11.89,59.86-43.46,60.27s-81.18-12.71-50.84-59.86C489.23,613.57,498.79,600.46,506.1,592.67Z"/><path class="cls-61" d="M569.24,635.37c-.66-1.85-1.33-3.62-2-5.35,0,1.34-.12,2.67-.22,4-1,12.47-5,26-15.37,33.91-9.72,7.41-22.82,10-34.81,9.86-12.24-.12-25.18-3.77-35.26-10.81-4.83-3.37-9.2-7.8-11.53-13.29a18.48,18.48,0,0,1-1.4-6c-15.26,37.5,28.41,48.34,57.14,48C557.35,695.24,588.1,687.86,569.24,635.37Z"/><g class="cls-62"><g class="cls-63"><circle class="cls-57" cx="496.36" cy="618.67" r="12.4"/><circle class="cls-57" cx="519.41" cy="626.55" r="3.48"/><circle class="cls-57" cx="543.31" cy="619.28" r="4.82"/><circle class="cls-57" cx="566.37" cy="661.62" r="18.25"/><circle class="cls-57" cx="526.6" cy="656.9" r="8.2"/><circle class="cls-57" cx="491.8" cy="652.24" r="4.56"/><circle class="cls-57" cx="505.06" cy="686" r="17.83"/><circle class="cls-57" cx="540.33" cy="679.25" r="3.08"/><circle class="cls-57" cx="470.22" cy="663.26" r="11.89"/><circle class="cls-57" cx="566.79" cy="631.29" r="8.22"/><circle class="cls-57" cx="534.41" cy="590.14" r="8.89"/></g></g><path class="cls-64" d="M498.36,597.78l30.06-50.62,25.47,51.23S530.93,587.33,498.36,597.78Z"/><path class="cls-52" d="M519.79,614.82a13.85,13.85,0,0,0,13.63-1l.2-.13c6.64-4.41,13.22,8,5,15.7s-21,7-26.81-1.16C506.71,621.15,511.06,610.85,519.79,614.82Z"/><g class="cls-65"><path class="cls-54" d="M538.67,629.77s.57-9.34-11.82-1.68c0,0-10.61-7.09-13.36,2.37C513.49,630.45,523.94,642,538.67,629.77Z"/><path class="cls-55" d="M527.14,632a1.52,1.52,0,0,1-1.8-.23,22.47,22.47,0,0,0-9-5.46,6.67,6.67,0,0,0-2.88,4.16s9.23,10.23,22.57,1.27C534.2,628.72,529.44,630.37,527.14,632Z"/></g><g class="cls-66"><path class="cls-11" d="M518.87,612.65s1,4.47-.56,5.61c-.52.37-3.37.64-4,.12-1.73-1.44-1.53-5.86-1.53-5.86S518,609.38,518.87,612.65Z"/><path class="cls-11" d="M538.78,611.41s1,4.47-.56,5.61c-.52.37-3.37.64-4,.12-1.73-1.44-1.53-5.86-1.53-5.86S537.93,608.14,538.78,611.41Z"/></g><ellipse class="cls-52" cx="537.84" cy="608.36" rx="1.94" ry="2.81"/><ellipse class="cls-52" cx="513.34" cy="608.36" rx="1.94" ry="2.81"/><g class="cls-67"><path class="cls-68" d="M502.68,582.41s21.4-10,51.2,0v-2.35s-27.27-12-51.21.41Z"/><path class="cls-68" d="M502.68,572.94s21.4-10,51.2,0v-2.35s-27.27-12-51.21.41Z"/><path class="cls-68" d="M502.68,563.47s21.4-10,51.2,0v-2.35s-27.27-12-51.21.41Z"/><path class="cls-68" d="M501,591.88s21.4-10,51.2,0v-2.35s-27.27-12-51.21.41Z"/></g><path class="cls-64" d="M530.28,547.64a3,3,0,0,1-3.38.28c-1.82-1-4.33-2.71-3-3.56,2.05-1.28,3.95,2.21,3.95,2.21s-.71-4.42.67-3.85.56,3.9.56,3.9.31-3.43,2.92-2.67C533.72,544.44,531.87,546.37,530.28,547.64Z"/><path class="cls-69" d="M481.59,631.47a4.11,4.11,0,0,0,1.35-2.21,1.55,1.55,0,0,0-3-.82s-.11.4-.06.25-.12.22-.12.23-.14.17,0,.05a3.18,3.18,0,0,1-.34.31,1.56,1.56,0,0,0,0,2.19,1.58,1.58,0,0,0,2.19,0Z"/><path class="cls-70" d="M496.47,547.63l-.81-4a2.5,2.5,0,0,0-3.05-1.73,2.54,2.54,0,0,0-1.73,3.05l.81,4a2.5,2.5,0,0,0,3.05,1.73,2.54,2.54,0,0,0,1.73-3.05Z"/><path class="cls-70" d="M481.13,563.15v-.66a2.48,2.48,0,1,0-5,0v.66a2.48,2.48,0,0,0,5,0Z"/><path class="cls-70" d="M585.77,685.16v-.66a2.48,2.48,0,1,0-5,0v.66a2.48,2.48,0,0,0,5,0Z"/><path class="cls-70" d="M569.31,560.67c3.19,0,3.2-5,0-5s-3.2,5,0,5Z"/><path class="cls-70" d="M557.4,541.81c3.19,0,3.2-5,0-5s-3.2,5,0,5Z"/><path class="cls-70" d="M535.73,531.72V529.4a2.48,2.48,0,0,0-5,0v2.32a2.48,2.48,0,1,0,5,0Z"/><path class="cls-70" d="M563.78,602l.66-.66a2.48,2.48,0,0,0-3.51-3.51l-.66.66a2.48,2.48,0,0,0,3.51,3.51Z"/><path class="cls-8" d="M563,579.86c3.19,0,3.2-5,0-5s-3.2,5,0,5Z"/><path class="cls-8" d="M466.32,689.79c3.19,0,3.2-5,0-5s-3.2,5,0,5Z"/><path class="cls-8" d="M482,608.72l-2.32-.67a2.48,2.48,0,1,0-1.32,4.79l2.32.67a2.48,2.48,0,0,0,1.32-4.79Z"/><path class="cls-8" d="M586,644.88a2.94,2.94,0,0,1,0-.3q-.09.61,0,.21l0-.15q.13-.37-.08.17a2.33,2.33,0,0,0,.23-.39q-.36.44-.1.15l.22-.21a2.5,2.5,0,0,0,0-3.51,2.54,2.54,0,0,0-3.51,0,5.67,5.67,0,0,0-1.78,4,2.5,2.5,0,0,0,2.48,2.48,2.53,2.53,0,0,0,2.48-2.48Z"/><path class="cls-8" d="M510.91,526.43v-2.32a2.48,2.48,0,1,0-5,0v2.32a2.48,2.48,0,0,0,5,0Z"/><path class="cls-8" d="M480.14,541v-1a2.48,2.48,0,1,0-5,0v1a2.48,2.48,0,1,0,5,0Z"/><path class="cls-8" d="M581.88,541.15c3.19,0,3.2-5,0-5s-3.2,5,0,5Z"/><path class="cls-10" d="M555.18,560.73l1-1.64a2.51,2.51,0,0,0-.89-3.4,2.53,2.53,0,0,0-3.4.89l-1,1.64a2.51,2.51,0,0,0,.89,3.4,2.53,2.53,0,0,0,3.4-.89Z"/><path class="cls-10" d="M547.14,528.25c3.19,0,3.2-5,0-5s-3.2,5,0,5Z"/><path class="cls-10" d="M502.57,579.7a7.43,7.43,0,0,0-1.65-3.4,2.48,2.48,0,0,0-1.75-.73,2.53,2.53,0,0,0-1.75.73,2.5,2.5,0,0,0-.73,1.75,2.89,2.89,0,0,0,.73,1.75c-.45-.57,0,0,.06.16s.17.59,0,0c.09.36.23.7.29,1.08a2.49,2.49,0,0,0,1.14,1.48,2.48,2.48,0,0,0,3.65-2.8Z"/><path class="cls-10" d="M483.78,526.43v-.33a2.48,2.48,0,1,0-5,0v.33a2.48,2.48,0,0,0,5,0Z"/><path class="cls-10" d="M586.41,664.84l1.31-1a2.74,2.74,0,0,0,1.14-1.48,2.54,2.54,0,0,0-.25-1.91c-.65-1-2.3-1.74-3.4-.89l-1.31,1a2.74,2.74,0,0,0-1.14,1.48A2.54,2.54,0,0,0,583,664c.65,1,2.3,1.74,3.4.89Z"/><path class="cls-10" d="M466.08,632.75c.08,0,.58.14.26,0l.34.15q-.25-.15,0,0c.41.35-.16-.26.16.17s0,0,0-.09a2.49,2.49,0,0,0-3.4-.89,2.55,2.55,0,0,0-.89,3.4,4,4,0,0,0,3.51,2.16,2.5,2.5,0,0,0,2.48-2.48,2.54,2.54,0,0,0-2.48-2.48Z"/><path class="cls-10" d="M472.89,569.82l-.34-.66a2.5,2.5,0,0,0-3.4-.89,2.54,2.54,0,0,0-.89,3.4l.34.66a2.5,2.5,0,0,0,3.4.89,2.54,2.54,0,0,0,.89-3.4Z"/><path class="cls-11" d="M502.69,508.08,501,503.15c-.26-.75-1.47-.43-1.21.33l1.73,4.94c.26.75,1.47.43,1.21-.33Z"/><path class="cls-11" d="M495.37,509.59a6.39,6.39,0,0,1-2.09-1.43c-.57-.57-1.45.31-.88.88a7.93,7.93,0,0,0,2.64,1.75.63.63,0,0,0,.77-.44.64.64,0,0,0-.44-.77Z"/><path class="cls-11" d="M490.4,513.58a14.21,14.21,0,0,0-5.46-.68c-.8.06-.8,1.31,0,1.25a13.28,13.28,0,0,1,5.13.64c.77.25,1.09-1,.33-1.21Z"/><path class="cls-11" d="M549.42,508.41l1.73-4.94c.27-.76-.94-1.09-1.21-.33l-1.73,4.94c-.27.76.94,1.09,1.21.33Z"/><path class="cls-11" d="M555.87,510.79a7.93,7.93,0,0,0,2.64-1.75c.57-.57-.32-1.46-.88-.88a6.39,6.39,0,0,1-2.09,1.43.65.65,0,0,0-.44.77.63.63,0,0,0,.77.44Z"/><path class="cls-11" d="M560.84,514.79a13.28,13.28,0,0,1,5.13-.64c.8.06.8-1.19,0-1.25a14.21,14.21,0,0,0-5.46.68c-.76.25-.44,1.46.33,1.21Z"/><path class="cls-10" d="M585.78,557.39h-1c0-1.92-.13-4.36-1.48-6.15a4.69,4.69,0,0,0-2.26-1.59,4,4,0,0,1-1.32,2.58,2.31,2.31,0,0,1-2.18.27,1.64,1.64,0,0,1-1.07-1.25,2.24,2.24,0,0,1,1-2.05,3.91,3.91,0,0,1,2.71-.74,4,4,0,0,0-.53-2.56,3.25,3.25,0,0,0-2.63-1.22,8.46,8.46,0,0,0-3.17.73l-.36-.92a9.7,9.7,0,0,1,3.55-.8,4.24,4.24,0,0,1,3.42,1.64,5.06,5.06,0,0,1,.7,3.32,5.71,5.71,0,0,1,2.94,2C585.63,552.66,585.8,555.31,585.78,557.39Zm-6-8a2.86,2.86,0,0,0-1.74.55,1.3,1.3,0,0,0-.61,1.09.67.67,0,0,0,.45.49,1.32,1.32,0,0,0,1.22-.14,3.09,3.09,0,0,0,1-2Z"/><path class="cls-8" d="M476.18,593.93l.14-1c1.9.26,4.34.42,6.29-.68a4.69,4.69,0,0,0,1.87-2,4,4,0,0,1-2.39-1.64,2.31,2.31,0,0,1,0-2.2,1.64,1.64,0,0,1,1.38-.9,2.24,2.24,0,0,1,1.91,1.25,3.91,3.91,0,0,1,.39,2.79,4,4,0,0,0,2.61-.2,3.25,3.25,0,0,0,1.55-2.45,8.45,8.45,0,0,0-.32-3.24l1-.24a9.7,9.7,0,0,1,.34,3.63,4.24,4.24,0,0,1-2.06,3.18,5.06,5.06,0,0,1-3.38.27,5.71,5.71,0,0,1-2.36,2.66C480.89,594.38,478.24,594.22,476.18,593.93Zm8.65-4.91a2.86,2.86,0,0,0-.32-1.8,1.3,1.3,0,0,0-1-.75.67.67,0,0,0-.55.39,1.32,1.32,0,0,0,0,1.22,3.09,3.09,0,0,0,1.85,1.2C484.81,589.2,484.82,589.11,484.83,589Z"/><path class="cls-70" d="M484.17,498.22l.21,1c-1.88.41-4.22,1.1-5.67,2.8a4.69,4.69,0,0,0-1,2.56,4,4,0,0,1,2.81.72,2.31,2.31,0,0,1,.75,2.07,1.64,1.64,0,0,1-1,1.32,2.24,2.24,0,0,1-2.22-.52,3.91,3.91,0,0,1-1.32-2.48,4,4,0,0,0-2.38,1.08,3.25,3.25,0,0,0-.61,2.83,8.45,8.45,0,0,0,1.41,2.93l-.82.56a9.71,9.71,0,0,1-1.56-3.29,4.24,4.24,0,0,1,.84-3.7,5.06,5.06,0,0,1,3.08-1.42,5.71,5.71,0,0,1,1.3-3.31C479.6,499.42,482.14,498.66,484.17,498.22Zm-6.43,7.58a2.86,2.86,0,0,0,.92,1.58,1.3,1.3,0,0,0,1.2.35.67.67,0,0,0,.38-.55,1.32,1.32,0,0,0-.4-1.16,3.09,3.09,0,0,0-2.15-.49C477.71,505.63,477.72,505.72,477.74,505.81Z"/></g><g class="cls-71"><path class="cls-72" d="M349.32,540.22s39.57-17.73,75,.83C424.35,541,378.65,551.85,349.32,540.22Z"/><path class="cls-73" d="M411.48,539.64s43,19.71,40.32-34.47c0,0,26.94,67-35.18,61.17Z"/><path class="cls-74" d="M452.34,545.31c-10.24,6.67-30.05,7.2-40.24-1.61l4.36,22.64c28.86,2.71,38.49-10.3,40.54-25A23.42,23.42,0,0,1,452.34,545.31Z"/><g class="cls-75"><path class="cls-76" d="M421.85,535.93s-8.39,24.19,9.21,38.23l1.91-1.25s-15.83-12-9.28-37Z"/><path class="cls-76" d="M433.39,531.37s-4.91,25.13,14.49,36.55l1.72-1.5s-17.36-9.68-14.38-35.31Z"/><path class="cls-76" d="M440.63,521.11s2.23,25.51,24,31.13l1.23-1.92s-19.36-4.51-23.58-30Z"/><path class="cls-76" d="M441.85,506s6.67,24.72,29.11,26.43l.88-2.1s-19.85-1-28.47-25.36Z"/></g><path class="cls-73" d="M359.67,539.64s-43,19.71-40.32-34.47c0,0-26.94,67,35.18,61.17Z"/><path class="cls-74" d="M318.82,545.31c10.24,6.67,30.05,7.2,40.24-1.61l-4.36,22.64c-28.86,2.71-38.49-10.3-40.54-25A23.41,23.41,0,0,0,318.82,545.31Z"/><g class="cls-77"><path class="cls-76" d="M349.3,535.93s8.39,24.19-9.21,38.23l-1.91-1.25s15.83-12,9.28-37Z"/><path class="cls-76" d="M337.76,531.37s4.91,25.13-14.49,36.55l-1.72-1.5s17.36-9.68,14.38-35.31Z"/><path class="cls-76" d="M330.52,521.11s-2.23,25.51-24,31.13l-1.23-1.92s19.36-4.51,23.58-30Z"/><path class="cls-76" d="M329.3,506s-6.67,24.72-29.11,26.43l-.88-2.1s19.85-1,28.47-25.36Z"/></g><path class="cls-9" d="M375.56,529.54s-4.91-5-1.37-4.71a14.4,14.4,0,0,1,6.38,2.35s-4.91-5.42-1.47-5.62,8.83,5.32,8.83,5.32,7.65-7.67,9-6.65-3.83,7.57-3.83,7.57,7.26-3.89,7.65-.51-4.67,4.91-4.67,4.91,10.16-1.5,26.25,10.78c0,0,2,2.66-1.18,2.93,0,0,26.69,28.45,22.76,32.13,0,0-1.57.2-1.83,0,0,0,41.65,143.66-13.21,130.57,0,0,1.6,2.56.23,2.92s-4.46-2-4.46-2,.15,1-.54,1.13-1.13-1.13-1.13-1.13,1.32,2.2-.29,2.66-4.07-1.38-4.07-1.38l-46.79,1.13a2.06,2.06,0,0,1-2.73,1.77c-2.4-.67-4.68-2.52-4.78-2.32s-3.69,3-5.46,2.46-3-3.55-3-3.55-56.62,22.65-20.13-126c0,0-3.68,4.09-3.66,0,0-1.75,9.68-41,25.9-47C358,537.25,349,534.66,375.56,529.54Z"/><path class="cls-78" d="M452.36,622.56c-.17,1.35-.38,2.7-.63,4-.89,4.7-5.45,18.16-11.31,14.72.16,6.83-1.76,15.39-9.45,13.74.23,6.21-3.45,13.36-9.94,10.76-2.08,8.18-9.49,9-16.83,6.36-1.64,5.69-3.63,10.4-10.57,10.35s-14.52-2.88-18.24-8.87c-8.41,10-23.63-.58-26.48-11.46-4.95,2.78-11.1,7-16.69,4.86-5.34-2.09-7.25-8.92-8.22-14.71-5,72.69,31.91,57.92,31.91,57.92s1.24,3,3,3.55,5.36-2.25,5.46-2.46,2.37,1.65,4.78,2.32a2.06,2.06,0,0,0,2.73-1.77l46.79-1.13s2.45,1.84,4.07,1.38c1.12-.32.83-1.47.54-2.15.2.32.5.68.88.62.69-.1.54-1.13.54-1.13s3.09,2.4,4.46,2-.23-2.92-.23-2.92C463.27,716.81,459.77,663.53,452.36,622.56Z"/><path class="cls-52" d="M381.25,573.63a17.69,17.69,0,0,0,17.41-1.24l.25-.17c8.48-5.63,16.89,10.24,6.41,20.05s-26.77,8.89-34.24-1.49C364.55,581.71,370.1,568.56,381.25,573.63Z"/><g class="cls-79"><path class="cls-54" d="M405.36,592.72s.73-11.93-15.1-2.15c0,0-13.55-9-17.06,3C373.2,593.6,386.54,608.38,405.36,592.72Z"/><path class="cls-55" d="M390.64,595.55a1.94,1.94,0,0,1-2.3-.3c-3.7-3.33-6.93-5.62-11.45-7a8.52,8.52,0,0,0-3.68,5.31S385,606.65,402,595.21C399.65,591.39,393.57,593.49,390.64,595.55Z"/></g><g class="cls-80"><path class="cls-11" d="M379.89,571.12s1.32,5.71-.72,7.17c-.67.48-4.3.82-5.1.16-2.2-1.84-2-7.49-2-7.49S378.8,566.95,379.89,571.12Z"/><path class="cls-11" d="M387,572.14s1.32,5.71-.72,7.17c-.67.48-4.3.82-5.1.16-2.2-1.84-2-7.49-2-7.49S385.91,568,387,572.14Z"/><path class="cls-11" d="M396,572.14s1.32,5.71-.72,7.17c-.67.48-4.3.82-5.1.16-2.2-1.84-2-7.49-2-7.49S394.92,568,396,572.14Z"/><path class="cls-11" d="M403,571.12s1.32,5.71-.72,7.17c-.67.48-4.3.82-5.1.16-2.2-1.84-2-7.49-2-7.49S401.87,566.95,403,571.12Z"/></g><ellipse class="cls-52" cx="404.3" cy="565.37" rx="2.48" ry="3.58"/><ellipse class="cls-52" cx="373.01" cy="565.37" rx="2.48" ry="3.58"/><circle class="cls-78" cx="419.19" cy="570.76" r="8.8"/><circle class="cls-78" cx="359.67" cy="571.99" r="8.8"/><polygon class="cls-81" points="359.11 632.46 367.35 687.15 413.82 687.15 418.84 631.42 359.11 632.46"/><path class="cls-82" d="M380.45,657.57c6.88-5.49,15-9.5,23-13.19a81.28,81.28,0,0,1,14.76-5.5l.67-7.47-59.73,1,7.08,47C368.86,671.06,373.13,663.42,380.45,657.57Z"/><rect class="cls-83" x="386.19" y="627.13" width="11.03" height="60.03"/><rect class="cls-84" x="356" y="626.77" width="66.5" height="12.73"/><rect class="cls-85" x="386.19" y="626.77" width="11.03" height="12.73"/><path class="cls-85" d="M388.86,621.42S403,600,412,609.78s8.16,24.25-5.55,23.11S388.86,621.42,388.86,621.42Z"/><path class="cls-85" d="M394.46,621.42S380.37,600,371.34,609.78s-8.16,24.25,5.54,23.11S394.46,621.42,394.46,621.42Z"/><path class="cls-86" d="M404.8,619.63c3-.88,6.32-2.89,6.63-6.23a7.26,7.26,0,0,0-2-5.55c-6.71-3.11-15,6.15-18.64,10.92C395.47,619.51,400.29,621,404.8,619.63Z"/><path class="cls-86" d="M377.68,619.73c4.72.18,9.18-1.86,13.76-2.4-4.65-5.68-13.64-14.51-20.06-7.55a24.33,24.33,0,0,0-3.58,5C369,618.06,373.28,619.56,377.68,619.73Z"/><path class="cls-83" d="M392.06,627.77h0a2.8,2.8,0,0,1-2.8-2.8v-7.3a2.8,2.8,0,0,1,2.8-2.8h0a2.8,2.8,0,0,1,2.8,2.8V625A2.8,2.8,0,0,1,392.06,627.77Z"/><path class="cls-87" d="M420.71,648.78s1.12,6.16-6.72,7.19a1.54,1.54,0,0,1-1.31-2.61,14.21,14.21,0,0,1,4.26-2.54s-7.83,3.35-8.22,1.15,7.1-2.83,7.1-2.83-7.3.15-7.13-1.7,7.42-.55,7.42-.55-4.46-1.06-4-3.17S421.32,642.43,420.71,648.78Z"/><path class="cls-87" d="M467,608.65c-2.86-6.18-12.81-7.74-19-7.19q.43,1.91.9,4a21.83,21.83,0,0,1,8.4,1,10.51,10.51,0,0,1,5.19,3.24c1.5,2,1.28,3.87.73,6.3-1.41,6.18-5.77,11.38-10.23,15.66a57.32,57.32,0,0,1-33.27,15.63c-2.59.28-2.62,4.38,0,4.09,16-1.76,31.34-9.78,41.36-22.55C465,623.87,470.06,615.18,467,608.65Z"/><path class="cls-87" d="M358.19,653.06s-1.12,6.16,6.72,7.19a1.54,1.54,0,0,0,1.31-2.61,14.22,14.22,0,0,0-4.26-2.54s7.83,3.35,8.22,1.15-7.1-2.83-7.1-2.83,7.3.15,7.13-1.7-7.42-.55-7.42-.55,4.46-1.06,4-3.17S357.58,646.71,358.19,653.06Z"/><path class="cls-87" d="M311.86,612.93c2.86-6.18,12.81-7.74,19-7.19-.29,1.28-.51,2.65-.82,4.06a22.2,22.2,0,0,0-8.47.94,10.51,10.51,0,0,0-5.19,3.24c-1.5,2-1.28,3.87-.73,6.3,1.41,6.18,5.77,11.38,10.23,15.66a57.32,57.32,0,0,0,33.27,15.63c2.59.28,2.62,4.38,0,4.09-16-1.76-31.34-9.78-41.36-22.55C313.88,628.14,308.84,619.45,311.86,612.93Z"/><path class="cls-88" d="M349.32,540.22l40.62-68.4L424.35,541S393.32,526.09,349.32,540.22Z"/><path class="cls-88" d="M392.45,472.45a4.09,4.09,0,0,1-4.57.38c-2.46-1.39-5.85-3.66-4-4.82,2.77-1.73,5.33,3,5.33,3s-1-6,.91-5.21.76,5.26.76,5.26.42-4.64,3.95-3.6C397.1,468.14,394.59,470.74,392.45,472.45Z"/><g class="cls-89"><polygon class="cls-10" points="382.59 489.04 385.63 495.19 392.42 496.18 387.51 500.97 388.67 507.73 382.59 504.54 376.52 507.73 377.68 500.97 372.77 496.18 379.56 495.19 382.59 489.04"/><polygon class="cls-10" points="386.14 514.79 388.31 519.19 393.16 519.89 389.65 523.31 390.48 528.14 386.14 525.86 381.81 528.14 382.63 523.31 379.13 519.89 383.98 519.19 386.14 514.79"/><polygon class="cls-10" points="400.61 499.2 403.38 504.82 409.58 505.72 405.09 510.09 406.15 516.26 400.61 513.35 395.06 516.26 396.12 510.09 391.64 505.72 397.84 504.82 400.61 499.2"/><polygon class="cls-10" points="409.58 525.72 410.37 527.32 412.13 527.57 410.85 528.81 411.15 530.57 409.58 529.74 408 530.57 408.3 528.81 407.03 527.57 408.79 527.32 409.58 525.72"/><polygon class="cls-10" points="365.22 525.72 366.52 528.36 369.44 528.78 367.33 530.84 367.83 533.74 365.22 532.37 362.62 533.74 363.11 530.84 361 528.78 363.92 528.36 365.22 525.72"/><polygon class="cls-10" points="389.75 480.83 390.86 483.09 393.35 483.45 391.55 485.2 391.97 487.68 389.75 486.51 387.52 487.68 387.94 485.2 386.14 483.45 388.63 483.09 389.75 480.83"/></g><text></text><text></text><path class="cls-8" d="M318.18,471.77h-.73a2.5,2.5,0,0,0,0,5h.73a2.5,2.5,0,0,0,0-5Z"/><path class="cls-8" d="M347.62,418.93v-.73a2.5,2.5,0,1,0-5,0v.73a2.5,2.5,0,0,0,5,0Z"/><path class="cls-8" d="M464,488l1.46-4.37a2.5,2.5,0,1,0-4.82-1.33l-1.46,4.37A2.5,2.5,0,1,0,464,488Z"/><path class="cls-8" d="M434.68,516.82c3.22,0,3.22-5,0-5s-3.22,5,0,5Z"/><path class="cls-8" d="M316.7,664.51l-1.46-2.18a2.5,2.5,0,1,0-4.32,2.52l1.46,2.18a2.5,2.5,0,0,0,4.32-2.52Z"/><path class="cls-8" d="M315.27,580.17c3.22,0,3.22-5,0-5s-3.22,5,0,5Z"/><path class="cls-8" d="M475.65,665l.73-2.91a2.5,2.5,0,1,0-4.82-1.33l-.73,2.91a2.5,2.5,0,1,0,4.82,1.33Z"/><path class="cls-8" d="M463.81,575.8c3.22,0,3.22-5,0-5s-3.22,5,0,5Z"/><path class="cls-8" d="M449.25,416.33c3.22,0,3.22-5,0-5s-3.22,5,0,5Z"/><path class="cls-10" d="M353.46,498.3a6.53,6.53,0,0,0-2.25-5.35,2.56,2.56,0,0,0-3.54,0,2.53,2.53,0,0,0,0,3.54,4,4,0,0,1,.61.6c-.34-.44.12.29.17.4-.23-.52,0,.3.06.42-.1-.6,0,.26-.05.4a2.51,2.51,0,0,0,2.5,2.5,2.56,2.56,0,0,0,2.5-2.5Z"/><path class="cls-10" d="M317.45,441.82c3.22,0,3.22-5,0-5s-3.22,5,0,5Z"/><path class="cls-10" d="M469.22,460l.73-.73a2.5,2.5,0,0,0-3.54-3.54l-.73.73a2.5,2.5,0,0,0,3.54,3.54Z"/><path class="cls-10" d="M426.26,490.29v-2.18a2.5,2.5,0,0,0-5,0v2.18a2.5,2.5,0,0,0,5,0Z"/><path class="cls-10" d="M475.46,642.06c3.22,0,3.22-5,0-5s-3.22,5,0,5Z"/><path class="cls-10" d="M309.75,589.74l-1.46-1.46a2.5,2.5,0,0,0-3.54,3.54l1.46,1.46a2.5,2.5,0,0,0,3.54-3.54Z"/><path class="cls-10" d="M474,415.61c3.22,0,3.22-5,0-5s-3.22,5,0,5Z"/><path class="cls-10" d="M472.55,680.65c3.22,0,3.22-5,0-5s-3.22,5,0,5Z"/><path class="cls-10" d="M304.84,686.07l1.45-.73a2.52,2.52,0,0,0,.9-3.42,2.56,2.56,0,0,0-3.42-.9l-1.45.73a2.52,2.52,0,0,0-.9,3.42,2.56,2.56,0,0,0,3.42.9Z"/><path class="cls-9" d="M333.86,501.24l-.73-2.91a2.5,2.5,0,0,0-4.82,1.33l.73,2.91a2.5,2.5,0,0,0,4.82-1.33Z"/><path class="cls-9" d="M326.19,417.79c3.22,0,3.22-5,0-5s-3.22,5,0,5Z"/><path class="cls-9" d="M460.9,437.45c3.22,0,3.22-5,0-5s-3.22,5,0,5Z"/><path class="cls-9" d="M477.64,532.84c3.22,0,3.22-5,0-5s-3.22,5,0,5Z"/><path class="cls-9" d="M453.62,591.09c3.22,0,3.22-5,0-5s-3.22,5,0,5Z"/><path class="cls-9" d="M477.64,620.22c3.22,0,3.22-5,0-5s-3.22,5,0,5Z"/><path class="cls-9" d="M306.53,645.7c3.22,0,3.22-5,0-5s-3.22,5,0,5Z"/><path class="cls-9" d="M308.71,561.24c3.22,0,3.22-5,0-5s-3.22,5,0,5Z"/><path class="cls-9" d="M306.53,449.2h-.73a2.5,2.5,0,0,0,0,5h.73a2.5,2.5,0,0,0,0-5Z"/><path class="cls-9" d="M479.83,484.05c3.22,0,3.22-5,0-5s-3.22,5,0,5Z"/></g><path class="cls-16" d="M569.32,490.26,566,494.89h0a9.1,9.1,0,0,0,7,0h0Z"/><path class="cls-16" d="M586.81,467.48c0,9.66-7.83,25.19-17.49,25.19s-17.49-15.53-17.49-25.19a17.49,17.49,0,0,1,35,0Z"/><path class="cls-90" d="M579,452.9l.15.35c3.33,7.83,5,18.59-.7,25.78a16.42,16.42,0,0,1-13.19,5.9c-4-.19-7.33-2.14-10.17-4.72,3.17,6.7,8.37,12.47,14.26,12.47,9.66,0,17.49-15.53,17.49-25.19A17.47,17.47,0,0,0,579,452.9Z"/><circle class="cls-91" cx="565.96" cy="461.86" r="8.97"/><path class="cls-32" d="M508.29,494l-2.65,3.66h0a7.19,7.19,0,0,0,5.5,0h0Z"/><path class="cls-32" d="M522.1,476c0,7.63-6.18,19.89-13.81,19.89S494.49,483.61,494.49,476a13.81,13.81,0,1,1,27.61,0Z"/><path class="cls-92" d="M515.91,464.47l.12.27c2.63,6.18,4,14.68-.55,20.36a13,13,0,0,1-10.42,4.66,12.79,12.79,0,0,1-8-3.73c2.5,5.29,6.61,9.85,11.26,9.85,7.63,0,13.81-12.26,13.81-19.89A13.79,13.79,0,0,0,515.91,464.47Z"/><circle class="cls-10" cx="505.64" cy="471.55" r="7.08"/><path class="cls-9" d="M183,526.83l-4.34,5.94h0a11.7,11.7,0,0,0,9,0h0Z"/><path class="cls-9" d="M205.59,497.62c0,12.42-10.17,32.35-22.59,32.3s-22.41-20-22.37-32.45a22.48,22.48,0,1,1,45,.15Z"/><path class="cls-93" d="M195.57,478.83l.19.44c4.25,10.08,6.37,23.92-1,33.14a21.11,21.11,0,0,1-17,7.52c-5.14-.26-9.41-2.78-13.05-6.12,4,8.62,10.71,16.07,18.28,16.1,12.42,0,22.55-19.89,22.59-32.3A22.46,22.46,0,0,0,195.57,478.83Z"/><circle class="cls-94" cx="178.81" cy="490.31" r="11.53" transform="translate(-312.09 667.48) rotate(-89.81)"/><path class="cls-8" d="M82.66,220l.85-1.08a2.72,2.72,0,0,0,.73-1.77,2.54,2.54,0,0,0-.73-1.77c-.9-.83-2.67-1.1-3.54,0l-.85,1.08a2.72,2.72,0,0,0-.73,1.77,2.54,2.54,0,0,0,.73,1.77c.9.83,2.67,1.1,3.54,0Z"/><path class="cls-8" d="M101.47,115.54c3.22,0,3.22-5,0-5s-3.22,5,0,5Z"/><path class="cls-10" d="M119.18,132.53l-.07-.27a2.5,2.5,0,1,0-4.82,1.33l.07.27a2.5,2.5,0,0,0,4.82-1.33Z"/><path class="cls-10" d="M42.26,137.19c3.22,0,3.22-5,0-5s-3.22,5,0,5Z"/><path class="cls-10" d="M76.59,113c3.22,0,3.22-5,0-5s-3.22,5,0,5Z"/><path class="cls-10" d="M109.61,204l-.07-.27a2.5,2.5,0,0,0-4.82,1.33l.07.27a2.5,2.5,0,0,0,4.82-1.33Z"/><path class="cls-9" d="M60.71,124c3.22,0,3.22-5,0-5s-3.22,5,0,5Z"/><path class="cls-9" d="M52.2,199.5c3.22,0,3.22-5,0-5s-3.22,5,0,5Z"/><path class="cls-9" d="M62.85,221.46c3.22,0,3.22-5,0-5s-3.22,5,0,5Z"/><path class="cls-9" d="M123.56,211.94c3.22,0,3.22-5,0-5s-3.22,5,0,5Z"/><path class="cls-8" d="M97.2,155.28c3.22,0,3.22-5,0-5s-3.22,5,0,5Z"/><path class="cls-10" d="M69.43,166.37l.3-1.45a2.5,2.5,0,0,0-4.82-1.33l-.3,1.45a2.5,2.5,0,1,0,4.82,1.33Z"/><path class="cls-95" d="M83.66,81.21c3.22,0,3.22-5,0-5s-3.22,5,0,5Z"/><path class="cls-8" d="M97.37,128c3.22,0,3.22-5,0-5s-3.22,5,0,5Z"/><path class="cls-96" d="M111.33,170.74c3.22,0,3.22-5,0-5s-3.22,5,0,5Z"/><path class="cls-96" d="M93.44,193.39c3.22,0,3.22-5,0-5s-3.22,5,0,5Z"/><path class="cls-8" d="M80.43,106.61c3.22,0,3.22-5,0-5s-3.22,5,0,5Z"/><path class="cls-70" d="M81.21,190.48q.3.42.15.19a1.62,1.62,0,0,1-.12-.21l.13.3q-.1-.4,0,.19a2.72,2.72,0,0,0-.73-1.77,2.54,2.54,0,0,0-1.77-.73c-1.23.05-2.66,1.11-2.5,2.5A5.26,5.26,0,0,0,77.68,194a2.51,2.51,0,0,0,3.54,0,2.56,2.56,0,0,0,0-3.54Z"/><path class="cls-95" d="M85.72,122.28q.3.42.15.19a1.62,1.62,0,0,1-.12-.21l.13.3q-.1-.4,0,.19a2.72,2.72,0,0,0-.73-1.77,2.54,2.54,0,0,0-1.77-.73c-1.23.05-2.66,1.11-2.5,2.5a5.26,5.26,0,0,0,1.31,3.07,2.51,2.51,0,0,0,3.54,0,2.56,2.56,0,0,0,0-3.54Z"/><path class="cls-8" d="M124,181.81q.3.42.15.19a1.62,1.62,0,0,1-.12-.21l.13.3q-.1-.4,0,.19a2.72,2.72,0,0,0-.73-1.77,2.54,2.54,0,0,0-1.77-.73c-1.23.05-2.66,1.11-2.5,2.5a5.26,5.26,0,0,0,1.31,3.07,2.51,2.51,0,0,0,3.54,0,2.56,2.56,0,0,0,0-3.54Z"/><path class="cls-8" d="M86.52,180.45q.3.42.15.19a1.62,1.62,0,0,1-.12-.21l.13.3q-.1-.4,0,.19a2.72,2.72,0,0,0-.73-1.77,2.54,2.54,0,0,0-1.77-.73c-1.23.05-2.66,1.11-2.5,2.5A5.26,5.26,0,0,0,83,184a2.51,2.51,0,0,0,3.54,0,2.56,2.56,0,0,0,0-3.54Z"/><path class="cls-8" d="M58.59,95q.3.42.15.19a1.62,1.62,0,0,1-.12-.21l.13.3q-.1-.4,0,.19A2.72,2.72,0,0,0,58,93.66a2.54,2.54,0,0,0-1.77-.73C55,93,53.59,94,53.75,95.43a5.26,5.26,0,0,0,1.31,3.07,2.51,2.51,0,0,0,3.54,0,2.56,2.56,0,0,0,0-3.54Z"/><path class="cls-8" d="M65.08,201.2c3.22,0,3.22-5,0-5s-3.22,5,0,5Z"/><path class="cls-70" d="M82.1,150.45c3.22,0,3.22-5,0-5s-3.22,5,0,5Z"/><path class="cls-95" d="M73.43,163.07c3.22,0,3.22-5,0-5s-3.22,5,0,5Z"/><path class="cls-10" d="M75.56,145.12l.63-1.36a2.7,2.7,0,0,0,.25-1.93,2.5,2.5,0,0,0-4.57-.6l-.63,1.36a2.7,2.7,0,0,0-.25,1.93,2.5,2.5,0,0,0,4.57.6Z"/><path class="cls-10" d="M93.93,111.73l.63-1.36a2.7,2.7,0,0,0,.25-1.93,2.5,2.5,0,0,0-4.57-.6l-.63,1.36a2.7,2.7,0,0,0-.25,1.93,2.5,2.5,0,0,0,4.57.6Z"/><path class="cls-10" d="M90.77,97.31l.63-1.36A2.7,2.7,0,0,0,91.66,94a2.5,2.5,0,0,0-4.57-.6l-.63,1.36a2.7,2.7,0,0,0-.25,1.93,2.5,2.5,0,0,0,4.57.6Z"/><path class="cls-9" d="M85.77,182.94c-.11,0-.21-.12-.32-.17s.41.41.11.08a2,2,0,0,0-.2-.21q.33.45.18.21l-.11-.19a2.52,2.52,0,0,0-3.42-.9,2.55,2.55,0,0,0-.9,3.42,4.84,4.84,0,0,0,2.13,2.06,2.7,2.7,0,0,0,1.93.25,2.5,2.5,0,0,0,.6-4.57Z"/><text></text><path class="cls-97" d="M32.24,97.32c3.22,0,3.22-5,0-5s-3.22,5,0,5Z"/><rect class="cls-98" x="53.07" y="63.44" width="1.72" height="12.41" transform="translate(-16.02 16.12) rotate(-14.82)"/><path class="cls-99" d="M56.11,49.91c2.23,8.44,1,16.09-2.86,17.1s-8.73-5-11-13.44,2.87-17.11,2.87-17.11S53.88,41.48,56.11,49.91Z"/><ellipse class="cls-100" cx="51.12" cy="58.98" rx="3.76" ry="8.31" transform="matrix(0.97, -0.26, 0.26, 0.97, -13.39, 15.04)"/><path class="cls-101" d="M49.4,208.33l-3.63-4.76,21.4-51.84a163.3,163.3,0,0,0,7.53-22.61q2.08-8.93.42-15.2a11.61,11.61,0,0,0-6.57-8q-5-2.31-12.43-.36a35.42,35.42,0,0,0-12.43,6,92.47,92.47,0,0,0-9.48,8.13,135.9,135.9,0,0,1-8.63-11.72,53,53,0,0,1-6.19-13A74.59,74.59,0,0,1,33.08,84.78a77.07,77.07,0,0,1,19.79-8,67.56,67.56,0,0,1,18-2.4,41.61,41.61,0,0,1,15.7,3,32.36,32.36,0,0,1,12.22,8.9,38,38,0,0,1,7.62,15.35,47.83,47.83,0,0,1,1.66,13A70.59,70.59,0,0,1,106.8,127a84.76,84.76,0,0,1-3.12,11.68q-2,5.65-3.92,10.9l-6.61,17.54,32.27-8.54a67.62,67.62,0,0,1,5.22,13,70.42,70.42,0,0,1,2.1,14.64Z"/><path class="cls-10" d="M53.21,83.81c3.22,0,3.22-5,0-5s-3.22,5,0,5Z"/><path class="cls-95" d="M55.82,193.92c3.22,0,3.22-5,0-5s-3.22,5,0,5Z"/><path class="cls-10" d="M44.37,108c3.22,0,3.22-5,0-5s-3.22,5,0,5Z"/><path class="cls-10" d="M33.17,108.36c3.22,0,3.22-5,0-5s-3.22,5,0,5Z"/><path class="cls-10" d="M68.2,87.81c3.22,0,3.22-5,0-5s-3.22,5,0,5Z"/><path class="cls-102" d="M96.71,174.48l-.45.12"/><path class="cls-95" d="M96,172.07l-.45.12A2.5,2.5,0,0,0,96.92,177l.45-.12A2.5,2.5,0,0,0,96,172.07Z"/><path class="cls-102" d="M67.57,182.19l-.45.12"/><path class="cls-102" d="M66.9,179.78l-.45.12a2.5,2.5,0,0,0,1.33,4.82l.45-.12a2.5,2.5,0,0,0-1.33-4.82Z"/><path class="cls-102" d="M87.42,167l-.45.12"/><path class="cls-102" d="M86.76,164.57l-.45.12a2.5,2.5,0,0,0,1.33,4.82l.45-.12a2.5,2.5,0,0,0-1.33-4.82Z"/><path class="cls-102" d="M88.3,140.21l-.45.12"/><path class="cls-102" d="M87.64,137.8l-.45.12a2.5,2.5,0,1,0,1.33,4.82l.45-.12a2.5,2.5,0,1,0-1.33-4.82Z"/><path class="cls-102" d="M41.13,92.33l-.45.12"/><path class="cls-102" d="M40.47,89.92,40,90a2.5,2.5,0,1,0,1.33,4.82l.45-.12a2.5,2.5,0,1,0-1.33-4.82Z"/><path class="cls-10" d="M76.84,175c3.22,0,3.22-5,0-5s-3.22,5,0,5Z"/><path class="cls-10" d="M90.72,154.78c3.22,0,3.22-5,0-5s-3.22,5,0,5Z"/><path class="cls-10" d="M105.41,182.73c3.22,0,3.22-5,0-5s-3.22,5,0,5Z"/><text class="cls-103" transform="translate(17.55 283.53) rotate(-16.12)">Aos</text><path class="cls-16" d="M42.18,539l-5.7,9h0a17,17,0,0,0,13-.85h0Z"/><path class="cls-16" d="M72,494.48c1.17,18-11.53,47.88-29.52,49S8,516.72,6.84,498.73A32.65,32.65,0,0,1,72,494.48Z"/><path class="cls-90" d="M55.62,468.26l.32.62c7.15,14.19,11.61,34,1.83,48.11A30.65,30.65,0,0,1,33.9,529.59c-7.48.14-13.91-3.09-19.52-7.57,6.72,12.09,17.12,22.22,28.09,21.51,18-1.17,30.69-31.06,29.52-49A32.61,32.61,0,0,0,55.62,468.26Z"/><circle class="cls-91" cx="32.48" cy="486.55" r="16.74" transform="translate(-31.57 3.14) rotate(-3.73)"/><path class="cls-9" d="M537,433.82l-4.18,5.77h0a11.34,11.34,0,0,0,8.68,0h0Z"/><path class="cls-9" d="M558.81,405.44c0,12-9.75,31.37-21.78,31.37s-21.78-19.34-21.78-31.37a21.78,21.78,0,1,1,43.56,0Z"/><path class="cls-93" d="M549,387.28l.19.43c4.15,9.76,6.25,23.15-.87,32.11a20.45,20.45,0,0,1-16.44,7.35c-5-.23-9.13-2.66-12.66-5.88,3.95,8.34,10.43,15.54,17.77,15.54,12,0,21.78-19.34,21.78-31.37A21.76,21.76,0,0,0,549,387.28Z"/><circle class="cls-94" cx="532.84" cy="398.45" r="11.17"/><path class="cls-32" d="M283.36,572.92l-3.75,5.17h0a10.16,10.16,0,0,0,7.78,0h0Z"/><path class="cls-32" d="M302.87,547.5c0,10.78-8.73,28.1-19.51,28.1s-19.51-17.33-19.51-28.1a19.51,19.51,0,1,1,39,0Z"/><path class="cls-92" d="M294.12,531.23l.17.39c3.71,8.74,5.6,20.74-.78,28.76A18.32,18.32,0,0,1,278.79,567c-4.46-.21-8.17-2.38-11.34-5.27,3.54,7.47,9.34,13.92,15.91,13.92,10.78,0,19.51-17.33,19.51-28.1A19.49,19.49,0,0,0,294.12,531.23Z"/><circle class="cls-10" cx="279.61" cy="541.23" r="10.01"/><g class="cls-104"><path class="cls-105" d="M201.15,87.4l-.23-.17a6.38,6.38,0,0,1-.63-.5c-.53-.46-1.23-1.18-2.09-1.94a7.88,7.88,0,0,0-1.49-1l-.21-.11-.05,0h0l-.12,0-.49-.19a7.21,7.21,0,0,0-1-.36l-1-.25c-.34-.07-.71-.07-1.06-.12a3.64,3.64,0,0,0-1.08,0l-.54,0-.24,0-.29.07a7.46,7.46,0,0,0-1.05.29,5.93,5.93,0,0,1-1.26.38,1.67,1.67,0,0,1-.87-.11,3.1,3.1,0,0,1-.65-.43l-.43-.48-.1-.12a1,1,0,0,1-.11-.15l-.15-.23a4.17,4.17,0,0,1-.63-2.33,4.38,4.38,0,0,1,.54-2,3.76,3.76,0,0,1,2.33-1.86,4,4,0,0,1,1.11-.07l-.28.06a4.13,4.13,0,0,0-.74.25,3.26,3.26,0,0,0-.95.69,3.62,3.62,0,0,0-.78,1.25,3.68,3.68,0,0,0,.35,3.37l.17.22s.08.12.06.07l.09.09.34.35c.11,0,.22.16.31.18a.43.43,0,0,0,.26,0,5.46,5.46,0,0,0,1-.33,8.82,8.82,0,0,1,1.21-.36l.29-.06a3.2,3.2,0,0,1,.35,0l.64,0a4.64,4.64,0,0,1,1.26,0,10.11,10.11,0,0,1,1.22.19l1.17.36a6,6,0,0,1,1,.45l.47.24.12.06h0l0,0h0l.06,0,.23.15a7.11,7.11,0,0,1,1.51,1.33c.81.92,1.3,1.77,1.74,2.29S201.15,87.4,201.15,87.4Z"/><path class="cls-106" d="M176.81,38s1.77-.32-7.53,10-10.64,9.67-10.64,9.67L151,44.83l10.76-14.9Z"/><path class="cls-107" d="M154.41,51.69c-6.4,3.49-10.41,3.25-15.78,2.69-3.34-.4-7.75-3.13-11.61-6.19l7.7-8.69-7.85-7c4.21-4.77,5-5.65,6.86-7.78l3.3-3.68c2.12-2.48,8.29-9.37,10.77-12.16l7.85,7,7.7-8.69c3.5,3.47,6.75,7.52,7.55,10.78,1.21,5.26,1.93,9.22-.77,16C166.72,35.26,153.34,49,154.41,51.69Z"/><path class="cls-108" d="M241.76,114a45.93,45.93,0,0,1-27.62,15.79c-9.5,1.25-19.88-2.63-28-6.89l-5.25-4.65a149.2,149.2,0,0,0-11.59-13.66c-6.89,8.88-16.79,4.46-15-7,.7-4.69,5.37-6.19,5-7.63-2.31-9.11-2.3-13.14-1.45-17.45,1.86-9.46,8.74-17.76,8.74-17.76-.52-1.21-6.71-6-7-6.24s-4.91,3-5.56,3.32c-.23.12-.06-3.27,0-3.59a22.48,22.48,0,0,1,7.24-10.49,17.36,17.36,0,0,1,8.18-3.27c-.27.67-3,5.54-2.67,5.86.08.08,5.76,5.83,7,6.22a42.58,42.58,0,0,1,15.77-9.94c4.18-1.36,9-2.72,18.32-1.53,1.47.19,2.39-4.62,7-5.89,11.18-3.14,16.76,6.15,8.77,14.06a150.23,150.23,0,0,0,15,9.86l5.25,4.65c5.2,7.5,10.3,17.34,10.2,26.92a45.24,45.24,0,0,1-9.48,25.88Z"/><path class="cls-109" d="M260.83,90.59a48.46,48.46,0,0,1-8.18,23c-5.6,8.2-18,15.25-18.4,26.1-2.05-2.07-3.12-5.1-3.81-7.87-.56,3.58-1.44,7.75-.74,11.37a10.18,10.18,0,0,1-4.85-5.72c-.27,1.9-.89,4-.67,6.05-3.71-5.41-9.13-4.68-13.7-4.07-6.42.85-12.13-2-18.11-5.09a59.55,59.55,0,0,1-18.32-14.55c-2.81-3.37-9.17-11.89-5.1-16.23,0,0,14,11.31,15.08,12.07a49.35,49.35,0,0,0,13.59,6.92c1.84.54,17.54,3.33,17.44,2.79A21.73,21.73,0,0,1,216.34,114a18.25,18.25,0,0,0,6.26,7c-3.77-10.06,5.61-26.16,12.84-33.4.13,1.35,1,2.91,1.1,4.12,1.18-3.22,1.37-6.92,3.19-9.72.53.83,2,1.91,2.44,2.72a26,26,0,0,1-.1-7.29,29.9,29.9,0,0,1,7.31,5.51c-.62-7.25-3.6-13.6-7.65-19.39-5.08-7.26-14.17-17.3-21.3-22.63,1.77-2,5.48-1,7.62-.19a61.47,61.47,0,0,1,8.31,4.29,54,54,0,0,1,11.15,8.47,45.71,45.71,0,0,1,8,10.87A47.25,47.25,0,0,1,260.83,90.59Z"/><path class="cls-110" d="M226,79.39c-1.06.92-2.86,2.55-2.24,3.26,1.09,1.24,3.13-1,3.76-1.74a4.34,4.34,0,0,0,1.18-2.14c0-1.59-1.49-.51-2,0C226.55,78.92,226.31,79.12,226,79.39Z"/><path class="cls-110" d="M207.27,100.55c.77-1.18,2.14-3.18,2.92-2.66,1.37.91-.53,3.23-1.21,4a4.36,4.36,0,0,1-2,1.46c-1.57.26-.7-1.4-.23-2C206.88,101.15,207,100.89,207.27,100.55Z"/><path class="cls-108" d="M163.35,7.18A64.5,64.5,0,0,0,155.43.61c-.6-.41-3.64,3.81-7.63,8.31l7.85,7Z"/><path class="cls-108" d="M127,48.18a65.91,65.91,0,0,1-7.5-6.65c-.48-.55,3.37-4.49,7.35-9l7.85,7Z"/><g class="cls-111"><path class="cls-11" d="M153.88,34.82c8.81-9.94,18.58-12.22,19.19-12.36l.56,2.56c-.21,0-21.23,5-28.63,32.48l-2.53-.68A53.62,53.62,0,0,1,153.88,34.82Z"/><path class="cls-11" d="M148.42,30.42a60.91,60.91,0,0,1,22.33-16l.87,2.47c-.27.09-27,9.9-34,40.12l-2.55-.6A58.88,58.88,0,0,1,148.42,30.42Z"/><path class="cls-11" d="M142.83,25.5a65.06,65.06,0,0,1,23.3-16.79l.9,2.46c-.28.1-28,10.58-35.07,40.81l-2.55-.6A58.82,58.82,0,0,1,142.83,25.5Z"/><path class="cls-11" d="M137.15,20.43a60.89,60.89,0,0,1,22.33-16l.87,2.47c-.27.1-27,9.9-34,40.12l-2.55-.6A58.89,58.89,0,0,1,137.15,20.43Z"/></g><path class="cls-112" d="M158.59,49.34l-28.89-20L119,41.36s14.26,14.16,22,14.66C149.81,56.57,157.73,51.14,158.59,49.34Z"/><path class="cls-113" d="M148.07,41.71s7.4,4.86,13.17,8.48l-2.6,7.45L145.39,40.11Z"/><polygon class="cls-113" points="139.47 43.58 133.87 48.06 133.2 46.03 138 42.28 139.47 43.58"/><path class="cls-112" d="M168,37.87l-23.1-25.72L155.69,0s15.78,12.45,17.2,20.12C174.49,28.72,168.86,36.23,168,37.87Z"/><path class="cls-113" d="M159.53,28.78s7.15,7.47,10.53,11.38L176.81,38,157.62,26.31Z"/><polygon class="cls-113" points="160.35 20.02 164.12 13.91 162.03 13.5 158.88 18.71 160.35 20.02"/><path d="M207.06,65.28c-1.32,1.65.68,3.57,1.94,4.23a3,3,0,0,0,2.44.35,1.92,1.92,0,0,0,1-2.32C211.75,65.92,208.8,63.11,207.06,65.28Z"/><path d="M190,84.55c1.49-1.49,3.62.3,4.41,1.48a3,3,0,0,1,.6,2.39,1.92,1.92,0,0,1-2.2,1.21C191.12,89.15,188,86.51,190,84.55Z"/><path class="cls-105" d="M202.41,75.4l-.15-.12c-.1-.08-.25-.18-.42-.34-.36-.31-.83-.79-1.41-1.29a7,7,0,0,0-1-.71l-.13-.08,0,0h0l-.08,0-.31-.15a5.92,5.92,0,0,0-.63-.29l-.62-.23c-.21-.07-.43-.1-.64-.16a2.36,2.36,0,0,0-.64-.09l-.32,0h-.14l-.17,0a3.82,3.82,0,0,0-.6.08,3,3,0,0,1-.72.11,1.18,1.18,0,0,1-.53-.14,1.51,1.51,0,0,1-.27-.18,2.92,2.92,0,0,1-.3-.27l-.16-.17-.07-.08-.08-.1-.11-.15a3,3,0,0,1-.57-1.39,2,2,0,0,1,.15-1.12,1.47,1.47,0,0,1,1-.83,1.69,1.69,0,0,1,.52,0c.24,0,.38.07.38.05h-.16a1.24,1.24,0,0,0-.29,0,1.49,1.49,0,0,0-.29.1,1.11,1.11,0,0,0-.35.25,1.4,1.4,0,0,0-.36.65,2.33,2.33,0,0,0,.5,2l.12.14,0,0,.06.06.23.23a2.38,2.38,0,0,0,.2.13.3.3,0,0,0,.16,0,2.67,2.67,0,0,0,.55-.11,4.44,4.44,0,0,1,.69-.11h.37l.38,0a3.06,3.06,0,0,1,.75.12,7.39,7.39,0,0,1,.74.21l.73.31a5.08,5.08,0,0,1,.64.34l.3.18.07,0h0l0,0h0l0,0,.15.11a6.41,6.41,0,0,1,1,.89c.56.6.93,1.13,1.24,1.47Z"/><path class="cls-114" d="M185.93,56.57a14.74,14.74,0,0,0-6.25,7.14A9.1,9.1,0,0,0,185.93,56.57Z"/><path class="cls-115" d="M179.35,69.44c5.12-10.8,12.2-13.77,12.2-13.77a8.74,8.74,0,0,0-5.63,1.17A9.1,9.1,0,0,1,179.67,64,8,8,0,0,0,179.35,69.44Z"/></g><path class="cls-8" d="M111.76,483.55c3.22,0,3.22-5,0-5s-3.22,5,0,5Z"/><path class="cls-8" d="M33.7,587.56l1.33-1a2.73,2.73,0,0,0,1.15-1.49,2.55,2.55,0,0,0-.25-1.93c-.66-1-2.3-1.74-3.42-.9l-1.33,1A2.73,2.73,0,0,0,30,584.74a2.55,2.55,0,0,0,.25,1.93c.66,1,2.3,1.74,3.42.9Z"/><path class="cls-8" d="M105.09,577.88c3.22,0,3.22-5,0-5s-3.22,5,0,5Z"/><path class="cls-8" d="M89.09,471.21c3.22,0,3.22-5,0-5s-3.22,5,0,5Z"/><path class="cls-8" d="M121.09,554.55c3.22,0,3.22-5,0-5s-3.22,5,0,5Z"/><path class="cls-10" d="M103.26,497v-.33a2.5,2.5,0,0,0-5,0V497a2.5,2.5,0,0,0,5,0Z"/><path class="cls-10" d="M13.09,478.21c3.22,0,3.22-5,0-5s-3.22,5,0,5Z"/><path class="cls-9" d="M122.49,455.32c-.16-.13-.3-.28-.45-.42-.33-.32.26.45,0,0-.07-.13-.14-.29-.22-.41q.22.54.09.17,0-.15-.08-.3a2.52,2.52,0,0,0-3.08-1.75,2.56,2.56,0,0,0-1.75,3.08,5.85,5.85,0,0,0,1.91,3.15,2.7,2.7,0,0,0,1.77.73,2.5,2.5,0,0,0,1.77-4.27Z"/><path class="cls-10" d="M60.76,460.55c3.22,0,3.22-5,0-5s-3.22,5,0,5Z"/><path class="cls-10" d="M69.92,544.71v-.33a2.5,2.5,0,0,0-5,0v.33a2.5,2.5,0,0,0,5,0Z"/><path class="cls-9" d="M38.76,468.55c3.22,0,3.22-5,0-5s-3.22,5,0,5Z"/><path class="cls-8" d="M61.09,665.21c3.22,0,3.22-5,0-5s-3.22,5,0,5Z"/><path class="cls-9" d="M5.42,554.21c3.22,0,3.22-5,0-5s-3.22,5,0,5Z"/><path class="cls-9" d="M11.09,583.21c3.22,0,3.22-5,0-5s-3.22,5,0,5Z"/><path class="cls-9" d="M85.09,557.88c3.22,0,3.22-5,0-5s-3.22,5,0,5Z"/><path class="cls-8" d="M63,602.18c3.22,0,3.22-5,0-5s-3.22,5,0,5Z"/><path class="cls-8" d="M71.79,516.4c3.22,0,3.22-5,0-5s-3.22,5,0,5Z"/><path class="cls-10" d="M38.88,686.55c3.22,0,3.22-5,0-5s-3.22,5,0,5Z"/><path class="cls-10" d="M34.62,520.94l.8-1.61a2.5,2.5,0,0,0-4.32-2.52l-.8,1.61a2.5,2.5,0,1,0,4.32,2.52Z"/><path class="cls-10" d="M153.65,611c3.22,0,3.22-5,0-5s-3.22,5,0,5Z"/><path class="cls-9" d="M147.23,499.55c3.22,0,3.22-5,0-5s-3.22,5,0,5Z"/><path class="cls-9" d="M100.68,630.28c3.22,0,3.22-5,0-5s-3.22,5,0,5Z"/></g></g></g></svg>