<svg xmlns="http://www.w3.org/2000/svg" viewBox="0 0 68.76 68.74"><defs><style>.cls-1{fill:#333;}</style></defs><title>web</title><g id="Capa_2" data-name="Capa 2"><g id="Capa_1-2" data-name="Capa 1"><path id="_Trazado_compuesto_" data-name="&lt;Trazado compuesto&gt;" class="cls-1" d="M68.76,34.37A34.42,34.42,0,0,0,34.38,0h0a34.37,34.37,0,0,0,0,68.74h0A34.42,34.42,0,0,0,68.76,34.37ZM34.38,65h0c-3.72,0-7.72-6.26-9.76-16.25a81.94,81.94,0,0,0,9.77.58,81.84,81.84,0,0,0,9.76-.58C42.09,58.71,38.09,65,34.38,65Zm0-19.45a75.17,75.17,0,0,1-10.43-.71,76.89,76.89,0,0,1,0-20.86,76.87,76.87,0,0,1,20.86,0,75.36,75.36,0,0,1,.71,10.43,75.36,75.36,0,0,1-.71,10.43A75.48,75.48,0,0,1,34.38,45.52ZM20,44.14c-10-2-16.25-6.05-16.25-9.77S10,26.65,20,24.61a83.1,83.1,0,0,0,0,19.53ZM34.37,3.77h0c3.71,0,7.72,6.26,9.76,16.25a83.07,83.07,0,0,0-19.53,0C26.66,10,30.66,3.78,34.37,3.77ZM48.72,24.61c10,2,16.25,6,16.25,9.76s-6.26,7.72-16.25,9.77a82.18,82.18,0,0,0,.58-9.76A82.18,82.18,0,0,0,48.72,24.61Zm15.21,2c-3.63-2.67-9.09-4.75-15.8-6-1.2-6.7-3.29-12.16-5.95-15.79A30.67,30.67,0,0,1,63.93,26.56ZM26.57,4.82c-2.66,3.63-4.75,9.09-5.95,15.79-6.7,1.2-12.17,3.28-15.8,5.95A30.66,30.66,0,0,1,26.57,4.82ZM4.82,42.18c3.63,2.67,9.09,4.75,15.8,6,1.2,6.7,3.28,12.16,5.95,15.79A30.65,30.65,0,0,1,4.82,42.18ZM42.19,63.92c2.66-3.63,4.74-9.09,5.95-15.79,6.7-1.2,12.17-3.29,15.8-6A30.67,30.67,0,0,1,42.19,63.92Z"/></g></g></svg>