<svg xmlns="http://www.w3.org/2000/svg" viewBox="0 0 58.71 54.7"><title>Recurso 1</title><g id="Capa_2" data-name="Capa 2"><g id="Capa_1-2" data-name="Capa 1"><path d="M0,5.24Q0,0,5.84,0t5.84,5.24a5.11,5.11,0,0,1-1.46,3.88,6.13,6.13,0,0,1-4.38,1.39Q0,10.51,0,5.24ZM11.18,54.7H.46V15.4H11.18Z"/><path d="M58.71,54.7H48v-23q0-4.25-1.51-6.38a5.5,5.5,0,0,0-4.82-2.13q-4.5,0-6.5,3t-2,10V54.7H22.43V15.4h8.19l1.44,5h.6a11.33,11.33,0,0,1,4.94-4.31,16.82,16.82,0,0,1,7.15-1.46q6.86,0,10.41,3.71t3.55,10.71Z"/></g></g></svg>