<svg xmlns="http://www.w3.org/2000/svg" viewBox="0 0 82.03 52.1"><defs><style>.cls-1{fill:#333;}</style></defs><title>Recurso 4</title><g id="Capa_2" data-name="Capa 2"><g id="Capa_1-2" data-name="Capa 1"><path class="cls-1" d="M0,0H16Q26.93,0,31.87,3.11T36.81,13a12.47,12.47,0,0,1-2.16,7.56,8.64,8.64,0,0,1-5.75,3.55v.35q4.89,1.09,7,4.08a13.27,13.27,0,0,1,2.16,7.95,13.09,13.09,0,0,1-5.08,11q-5.08,3.94-13.8,3.94H0ZM10.9,20.36h6.33q4.43,0,6.42-1.37a5.12,5.12,0,0,0,2-4.54,4.54,4.54,0,0,0-2.16-4.24Q21.3,8.93,16.63,8.93H10.9Zm0,8.65V42.4H18q4.5,0,6.64-1.72a6.36,6.36,0,0,0,2.14-5.27q0-6.4-9.14-6.4Z"/><path class="cls-1" d="M65.32,52.1q-9.49,0-14.84-5.24T45.14,32q0-9.88,4.94-15.28t13.66-5.4q8.33,0,13,4.75t4.64,13.11v5.2H56a10.32,10.32,0,0,0,2.71,7.14,9.52,9.52,0,0,0,7.1,2.57,29.48,29.48,0,0,0,6.71-.74A33.61,33.61,0,0,0,79.14,41v8.3a25.19,25.19,0,0,1-6,2.09A37.9,37.9,0,0,1,65.32,52.1ZM63.81,19a6.8,6.8,0,0,0-5.34,2.16,10,10,0,0,0-2.21,6.13h15a8.94,8.94,0,0,0-2.07-6.13A7,7,0,0,0,63.81,19Z"/><rect class="cls-1" x="46.53" y="1.9" width="35.5" height="6"/></g></g></svg>