<svg xmlns="http://www.w3.org/2000/svg" viewBox="0 0 46.83 25.99"><defs><style>.cls-1{fill:#f2f2f2;}</style></defs><title>Recurso 29</title><g id="Capa_2" data-name="Capa 2"><g id="Capa_1-2" data-name="Capa 1"><line class="cls-1" x1="8.09" y1="1.69" x2="46.83" y2="1.69"/><rect class="cls-1" x="8.09" y="0.61" width="38.74" height="2.18"/><line class="cls-1" x1="8.09" y1="12.99" x2="46.83" y2="12.99"/><rect class="cls-1" x="8.09" y="11.9" width="38.74" height="2.18"/><line class="cls-1" x1="8.09" y1="24.29" x2="46.83" y2="24.29"/><rect class="cls-1" x="8.09" y="23.2" width="38.74" height="2.18"/><path class="cls-1" d="M1.64,3.39A1.7,1.7,0,0,0,1.64,0a1.7,1.7,0,0,0,0,3.39Z"/><path class="cls-1" d="M1.64,14.69a1.7,1.7,0,0,0,0-3.39,1.7,1.7,0,0,0,0,3.39Z"/><path class="cls-1" d="M1.64,26a1.7,1.7,0,0,0,0-3.39,1.7,1.7,0,0,0,0,3.39Z"/></g></g></svg>