<svg xmlns="http://www.w3.org/2000/svg" viewBox="0 0 173.48 170.21"><defs><style>.cls-1{fill:#333;}</style></defs><title>Recurso 5</title><g id="Capa_2" data-name="Capa 2"><g id="Capa_1-2" data-name="Capa 1"><path class="cls-1" d="M40.14,59.77c-4.17-15.16,1-23.6,1-23.6S52.41,35.41,64.42,45c.7.56,13.7-3.34,25.41-3,16.75.51,19.12,3.92,19.93,3.24,11.64-9.71,22.89-9.54,22.89-9.54s5.13,11.36.74,23.62c-.2.57,9.52,5,9.52,26.56,0,37.3-36.32,39.54-40,39.54,0,0,.2.26,3,5.22,5.12,9.24,1.59,36,4.76,39.15,3.45,3.45,65.89-17.12,62.71-90.26C171.61,39.3,133.49,2,91.13.09,43.11-2.09,3.79,37.34.27,80c-4.44,54,46.07,91.76,62,90.12,5.36-.55,3.44-19.93,3.44-19.93a52.11,52.11,0,0,1-13.93.21c-6.87-.88-12.27-3.24-14.4-7.88-2.25-4.91-4-9.58-6.52-12.65s-6.84-3.47-7.64-6a1.64,1.64,0,0,1,.35-1.85c1.71-2,8.51-.23,12.95,4.22,3.2,3.21,2.35,3.93,5.78,7.62A20.16,20.16,0,0,0,53,139.78c1.07.21,8.73.09,11.91-1.6,1.54-.82.85-3.55,2.43-6.81a19,19,0,0,1,3.61-5.21s-39.49,0-39.49-39.14C31.43,66.16,40.14,59.77,40.14,59.77Z"/></g></g></svg>